<svg xmlns="http://www.w3.org/2000/svg" viewBox="0 0 298.37 298.37"><defs><style>.cls-1{fill:#fff;}</style></defs><g id="Layer_2" data-name="Layer 2"><g id="Layer_2-2" data-name="Layer 2"><path class="cls-1" d="M296.93,1.44h0a4.94,4.94,0,0,0-7,0L152.67,138.74a4.94,4.94,0,0,1-7,0L8.41,1.44a4.94,4.94,0,0,0-7,0h0a4.94,4.94,0,0,0,0,7L138.74,145.7a4.94,4.94,0,0,1,0,7L1.44,290a4.94,4.94,0,0,0,0,7h0a4.94,4.94,0,0,0,7,0L145.7,159.63a4.94,4.94,0,0,1,7,0L290,296.93a4.94,4.94,0,0,0,7,0h0a4.94,4.94,0,0,0,0-7L159.63,152.67a4.94,4.94,0,0,1,0-7L296.93,8.41A4.94,4.94,0,0,0,296.93,1.44Z"/></g></g></svg>