<svg id="Layer_1" data-name="Layer 1" xmlns="http://www.w3.org/2000/svg" viewBox="0 0 1000 1000"><defs><style>.cls-1{opacity:0.15;}</style></defs><path class="cls-1" d="M994.51,458c-.3-10.51-1-21-2.22-31.63s-3.08-21.25-6.78-32.15c-.47-1.37-1-2.74-1.53-4.12a20.43,20.43,0,0,0-1.84-3.55,22.16,22.16,0,0,0-2.34-3,29.71,29.71,0,0,0-9.81-6.65,49.05,49.05,0,0,0-19-3.9,39.4,39.4,0,0,0-10.37,1.22,24,24,0,0,0-6.11,2.49,17.1,17.1,0,0,0-6.54,6.64,13.49,13.49,0,0,0-1.09,2.6,17.87,17.87,0,0,0-.53,2.2l-.32,2.12c-.24,1.43-.35,2.79-.52,4.19-.28,2.76-.44,5.48-.58,8.18-.8,21.44.93,41.92,1.93,62.34.51,10.14,1.09,20.37.79,30a53.49,53.49,0,0,1-.57,6.78,11.87,11.87,0,0,1-1.6,4.79,54.31,54.31,0,0,1-8.34,10.67,206.38,206.38,0,0,1-22.37,19.56c-6.56,5.06-13.37,10-20.19,14.63a88,88,0,0,0-11-6.12c0-.86-.08-1.72-.11-2.58-.16-3.47-.4-6.92-.69-10.37-.42-4.94-.94-9.86-1.52-14.77a59,59,0,0,0,10.13-5.45,45.14,45.14,0,0,0,19.31-30,50.41,50.41,0,0,0,.66-8.73,42.16,42.16,0,0,0-.3-4.91,48.52,48.52,0,0,0,8.64.29,62.2,62.2,0,0,0,10.81-1.4l.45-.1a8.13,8.13,0,0,0,5.74-9.95l-.29-1.07c-1.21-4.52-2.55-8.5-4.07-12.69s-3.2-8.25-5.14-12.34a94.21,94.21,0,0,0-6.86-12.21A57.23,57.23,0,0,0,894,411.3a51.47,51.47,0,0,0-3.24-11.61,77.57,77.57,0,0,0-7-13.22A96.39,96.39,0,0,0,864.46,365c-7.58-6.1-16.27-11.52-27.05-14.45a54.2,54.2,0,0,0-8.5-1.51c-1.57-.17-2.79-.2-4-.23s-2.48-.1-3.72-.06c-2.21,0-4.41.14-6.61.33-1.39-1.21-2.81-2.4-4.3-3.52a64.9,64.9,0,0,0-7.82-5c-.16-3.26-.38-6.51-.64-9.76-.37-4.39-.83-8.76-1.34-13.14a52.8,52.8,0,0,0,9-4.85A41.52,41.52,0,0,0,821,301a41.09,41.09,0,0,0,5.77-15.08,42.61,42.61,0,0,0,.24-12.65,35.79,35.79,0,0,0,6.88-.5,43.67,43.67,0,0,0,8-2.24l.3-.12a7.31,7.31,0,0,0,3.76-9.64l-.49-1.12-15.3-34.92c-.6-7.46-3.12-13.34-5.87-18.77a80.54,80.54,0,0,0-11.11-15.83,82.19,82.19,0,0,0-14.39-12.89,62.12,62.12,0,0,0-18.5-9.15,47.53,47.53,0,0,0-11.21-1.88,73.21,73.21,0,0,0-9.93.14,74.88,74.88,0,0,0-19.71,4.29,65.79,65.79,0,0,0-32.26,25.23,63.17,63.17,0,0,0-10,39.55,72.59,72.59,0,0,0,1.37,9.87l.72,3.51c.11,1,.31,1.93.37,3a75.37,75.37,0,0,1-.52,14.41c-.52,5.33-1.42,11.1-1.38,17.83a43,43,0,0,0,1.42,11,27.86,27.86,0,0,0,6.16,11.39,28.33,28.33,0,0,0,10,7,44,44,0,0,0,10,3,78.54,78.54,0,0,0,10.08,1.1q-.25,9.36-.4,18.54a85.92,85.92,0,0,0-21.27,10.42c-7.14-4.87-14.24-10-21.09-15.28a212.44,212.44,0,0,1-22.19-19.3,63.7,63.7,0,0,1-8.78-10.8,23.54,23.54,0,0,1-1.42-2.7,10.15,10.15,0,0,1-.59-2.32,27.93,27.93,0,0,1,0-6.36c.85-9.18,3.42-18.85,6.06-28.33,5.38-19.11,12.18-37.89,17.46-57.75a23,23,0,0,0,.17-10.79,21.34,21.34,0,0,0-5.48-9.75c-5.1-5.12-11.17-7.39-17.08-8.61a36.38,36.38,0,0,0-18.71,1,20.15,20.15,0,0,0-5.2,2.74A14.46,14.46,0,0,0,632,184a11.48,11.48,0,0,0-.51,1.2l-.36.9-.71,1.81L629,191.48c-7,19.29-12.36,38.83-17.07,58.58-2.32,9.89-4.41,19.83-6.16,29.9a244.62,244.62,0,0,0-3.65,30.86c-.1,2.68-.12,5.39,0,8.22a38.66,38.66,0,0,0,1.48,9.26,16.6,16.6,0,0,0,3.25,6.07c.62.71.8.84,1,1.07l.7.67,1.41,1.36c1.86,1.8,3.73,3.48,5.6,5.21,2.13,1.94,4.28,3.83,6.42,5.75-1.81.16-3.63.35-5.46.59a90.33,90.33,0,0,0-23.88,6.15,56.4,56.4,0,0,0-12,7c.14-1.35.27-2.71.41-4.06q5.18-47.21,11-94.3c4-31.39,7.91-62.8,12.74-94.08q2.18-14.08,4.53-28.16c11.75,1,23.48,2.1,35.22,3.13l51.57,4.67a3.2,3.2,0,0,0,3.49-2.9v0l6-63.46,5.79-64.19C695,16.31,676.85,15,659.15,13.64l-53.28-3.55C588.3,8.82,571,7,553.64,5.37S518.92,1.93,501.53,0h0a3.71,3.71,0,0,0-4.09,3.29l0,.15-6.78,61.91q-3.45,30.94-6.44,61.93v0a6,6,0,0,0,5.4,6.49h0c17.19,1.57,34.36,3.38,51.61,4.26,17,.81,34,1.35,51,2.28q-1.37,13.68-2.87,27.33c-2.06,18.51-4.45,37-6.94,55.43a71.5,71.5,0,0,0-6.87-11.64c-7.78-10.79-19.64-19.65-32.69-23.35a68.79,68.79,0,0,0-19.47-3c-1.56,0-3.21,0-5,.08s-3.44.27-5.09.52a70.87,70.87,0,0,0-9.63,2.07c-12.31,3.79-23.67,9.87-33,20.16a42.52,42.52,0,0,0-10.2,19.44,34.74,34.74,0,0,0,.74,17.21c-.76,1.15-1.52,2.31-2.3,3.46-1.9,2.83-3.89,5.66-5.9,8.49-4,5.65-8.19,11.29-12.33,16.85L440,274.5l-.12.16a7.57,7.57,0,0,0,1.89,10.54,50.07,50.07,0,0,0,7.89,4.53,40.54,40.54,0,0,0,7.48,2.5,69.66,69.66,0,0,0-3,15,43.5,43.5,0,0,0,2.21,19.07,26.48,26.48,0,0,0,5.86,9.2,24.32,24.32,0,0,0,9.59,6,36.42,36.42,0,0,0,10.38,1.8q-.75,5-1.4,10.1c-.17,1.35-.29,2.71-.45,4.06a99.51,99.51,0,0,0-29,20.65,116,116,0,0,0-10.15,11.93c-1.81-2.15-3.69-4.27-5.73-6.31a82.9,82.9,0,0,0-20.13-14.83A80.86,80.86,0,0,0,392,361c.11-4.63.2-9.28.26-14,1.42.22,2.89.49,4.43.88,1.94.49,3.91,1.06,5.89,1.71s4,1.37,5.75,2.05a8.44,8.44,0,0,0,1.69.48,8.7,8.7,0,0,0,10.07-7.06l.13-.74c3.22-18.32,6.22-36.29,8-55.34a108.24,108.24,0,0,0-1.38-30.65c-2.16-10.32-6.29-20.88-13.62-29.88a57.55,57.55,0,0,0-13-11.79,56.61,56.61,0,0,0-16-7.11,63.59,63.59,0,0,0-16.72-2.12,43.86,43.86,0,0,0-9.37,1,53.38,53.38,0,0,0-8.53,2.65,76.08,76.08,0,0,0-35.41,32.23,43.24,43.24,0,0,0-5.17,15c-2.73,4.89-5,9.59-7.28,14.36-2.6,5.51-5.09,11-7.5,16.57l-.47,1.09a6.6,6.6,0,0,0,2.88,8.35,38.5,38.5,0,0,0,6.9,3A31.1,31.1,0,0,0,310,303a41.18,41.18,0,0,0-.34,11.89,37.19,37.19,0,0,0,14.82,25.36,48.47,48.47,0,0,0,8,4.8c-.64,4-1.23,8-1.74,12-.53,4.38-1,8.77-1.26,13.19A100.49,100.49,0,0,0,314,380c-3.39-16-9.62-32.15-20.42-46.31A89.79,89.79,0,0,0,274.18,315c-4.67-25.12-9.31-50.25-13.34-75.49q-2.25-14.09-4.31-28.19c11.48-2.69,23-5.2,34.48-7.81l50.53-11.35a3.2,3.2,0,0,0,2.44-3.83v0l-13.72-62.25L316.1,63.2c-16.53,2.7-34.15,7-51.43,11.13L212.86,87.26C195.75,91.44,178.75,95,161.7,98.77s-34.11,7.36-51.24,10.87h0a3.7,3.7,0,0,0-2.89,4.38l0,.15,12.5,61q6.2,30.51,12.84,60.93v0a6,6,0,0,0,7.13,4.52h.05c16.84-3.77,33.74-7.31,50.43-11.76,16.44-4.43,32.82-9.14,49.29-13.46q2.9,13.44,5.64,26.9c4.31,21.19,8.18,42.47,12,63.76a85.44,85.44,0,0,0-11.18-3.58,84.05,84.05,0,0,0-14.12-2.1c-2.36-.22-4.67-.14-7-.19l-6.17.14a140.07,140.07,0,0,0-25.73,3,85.86,85.86,0,0,0-26.35,10.41,67.42,67.42,0,0,0-21,20.81,81.25,81.25,0,0,0-10.63,25.81A116.28,116.28,0,0,0,132.33,383c-1.77,3.12-3.43,6.19-5,9.26-2.25,4.33-4.41,8.64-6.53,13l-6.25,13c-2,4.34-4.1,8.61-6,13.05l-.64,1.45,0,.06a9.7,9.7,0,0,0,5.07,12.75,43.61,43.61,0,0,0,14.16,3l7.39.6c2.48.23,4.82.62,7.66.81l.66,0a2.74,2.74,0,0,1,0,.28c.2,2,.29,4.3.4,6.56a137.2,137.2,0,0,0,1.25,14c1.43,9.42,4.94,19.44,11.76,27.46a53.81,53.81,0,0,0,18.07,13.72c-1,6.05-1.88,12.11-2.65,18.19-.29,2.36-.53,4.73-.8,7.09a110.25,110.25,0,0,0-17.76,9.37c-8.41-5.77-16.8-11.79-24.87-18a251.86,251.86,0,0,1-27.51-24,67.14,67.14,0,0,1-10.26-13.12,14.82,14.82,0,0,1-2-5.89,65.47,65.47,0,0,1-.72-8.33c-.39-11.84.23-24.41.93-36.88,1.34-25.1,3.4-50.29,2.43-76.65-.16-3.32-.37-6.66-.71-10.06-.21-1.72-.35-3.39-.64-5.15l-.39-2.61a20.65,20.65,0,0,0-.66-2.7,16.65,16.65,0,0,0-1.34-3.2,21,21,0,0,0-8-8.17,29.55,29.55,0,0,0-7.51-3.06,48.31,48.31,0,0,0-12.75-1.49A60.18,60.18,0,0,0,35.67,332a36.59,36.59,0,0,0-12.06,8.17,27,27,0,0,0-2.87,3.68,24.73,24.73,0,0,0-2.27,4.37c-.68,1.69-1.3,3.38-1.88,5.06-4.54,13.41-6.73,26.49-8.33,39.53s-2.37,26-2.73,38.9A521.31,521.31,0,0,0,9,509.15c.86,6.51,1.86,13,3.3,19.74.73,3.36,1.55,6.75,2.69,10.34q.83,2.68,2.05,5.64a33.72,33.72,0,0,0,3.85,6.92A23.53,23.53,0,0,0,22.81,554c.46.48.43.42.65.63l.48.46L25.89,557c1.32,1.26,2.58,2.36,3.86,3.41,2.56,2.2,5.1,4.23,7.64,6.26,5.08,4,10.16,7.92,15.26,11.76,16.52,12.43,33.28,24.21,50.3,35.69-4.33,18.33-7.88,36.6-11.07,54.86-3.56,20.39-6.49,40.79-9.27,61.18s-5.14,40.8-7.36,61.21-4.2,40.79-5.89,61.36l0,.57a10,10,0,0,0,5.5,9.8h0c9.06,5.07,17.72,9.28,26.74,13.48s18,8,27.21,11.64a574.35,574.35,0,0,0,56.14,19,531,531,0,0,0,58.18,12.9q21.61,3.52,43.65,5c.44,4.68.83,9.37,1.33,14q1.35,12.78,3,25.55l1.76,12.78,1,6.42.51,3.23.26,1.63.07.42.26,1.4c.07.32.19.64.27,1l12.47,4.25a69.56,69.56,0,0,0,11.79,3c2.09.33,4.19.55,6.25.67l4.09.17c5,.21,9.93.42,14.89.39,9.93.1,19.86-.22,29.77-.77a482.77,482.77,0,0,0,59.11-7,577.5,577.5,0,0,0,58-13.63c9.54-2.78,19-5.78,28.45-9.09,4.71-1.65,9.42-3.37,14.11-5.2s9.17-3.67,14.33-6a17.26,17.26,0,0,0,9.84-13.13l.08-.53c1.27-8.83,2.17-17,3-25.46a577.29,577.29,0,0,0,56.61,13.26,482.77,482.77,0,0,0,59.11,7c9.92.54,19.84.87,29.77.77,5,0,9.93-.18,14.89-.39l4.09-.17c2.06-.12,4.16-.34,6.25-.67a69.56,69.56,0,0,0,11.79-3l12.47-4.25c.08-.32.2-.64.27-1l.26-1.41.07-.41.27-1.63.5-3.23,1-6.42,1.76-12.78q1.67-12.78,3-25.55c.7-6.65,1.29-13.31,1.88-20a408.61,408.61,0,0,0,83.33-14.61,464.8,464.8,0,0,0,45.65-15.45,384.26,384.26,0,0,0,43.88-20.42h0a8.56,8.56,0,0,0,4.45-8.23v-.21c-1.38-16.72-3-33.28-4.8-49.9s-3.74-33.19-6-49.78-4.65-33.17-7.54-49.76c-2.6-14.85-5.49-29.7-9-44.61,13.85-9.34,27.48-18.92,40.91-29,4.15-3.13,8.29-6.27,12.42-9.56,2.06-1.65,4.12-3.3,6.21-5.09,1-.86,2.06-1.75,3.13-2.78l1.59-1.49c.32-.31.4-.34.92-.89a17.2,17.2,0,0,0,1.54-1.82,34.78,34.78,0,0,0,4.8-10.22c.92-2.92,1.59-5.68,2.18-8.41,1.18-5.45,2-10.75,2.69-16.05A423.9,423.9,0,0,0,994.51,458Zm-51,8V464.5c-.09-10.32-.26-20.65-.19-30.85q3.69-2.56,7.11-5.39a126.9,126.9,0,0,0,10-9.55c2.56-2.61,5-5.33,7.41-8.09,1.3,5.92,2.28,12.11,3,18.34.42,3.53.69,7.1,1,10.68q-3.59,2.85-7,5.83c-4.2,3.66-8.32,7.41-12.29,11.32C949.39,459.77,946.4,462.87,943.48,466Zm2.73-74.21c.08-.48,0,0,0,.24Zm-.86,5.08c.16-.94.29-1.9.46-2.83a20,20,0,0,1,4.77-.32,31.88,31.88,0,0,1,8,1.39c-.41.33-.83.65-1.23,1-3.53,3-7,6.06-10.25,9.29-1,.92-1.92,1.89-2.87,2.84.1-1.41.14-2.85.26-4.25C944.74,401.61,945,399.23,945.35,396.91Zm-66.52,170.2c17.13-12.13,33.4-24.63,48.68-39.84,3.71-4,7.52-7.89,10.77-13.29a22.59,22.59,0,0,0,1.18-2.14,17.1,17.1,0,0,0,1.09-2.53,29.9,29.9,0,0,0,1.27-4.9,83.16,83.16,0,0,0,1.06-8.48c.16-2.06.25-4.08.34-6.09a130.24,130.24,0,0,0,10.52-8.19c4.18-3.69,8.18-7.56,12-11.58,2.42-2.46,4.77-5,7.09-7.55.16,11.62-.12,23.3-.91,34.88q-28.32,26.69-56.16,53.87c-20.75,20-41.07,40.38-61.56,60.6s-40.77,40.67-60.89,61.27Q779.15,687.84,765,702.6c-1.16-9.6-2.61-19.22-4.47-28.84q7.94-7.21,15.69-14.61,16.53-15.79,32.55-32.09t31.79-32.84q13.63-14.29,26.84-29c.88.57,1.77,1.11,2.62,1.73l.18.13A7.42,7.42,0,0,0,878.83,567.11Zm-127,71.69q1.35-8.87,3.38-17.52,5.26-4.23,10.33-8.68c4.91-4.37,9.73-8.83,14.4-13.44s9.3-9.26,13.69-14.14a152.08,152.08,0,0,0,12.15-15.29,46.63,46.63,0,0,0,20.43,6,54.4,54.4,0,0,0,6-.2,32.26,32.26,0,0,0,3.52-.45c-2.45,2.31-4.93,4.6-7.37,6.92q-16.65,15.66-32.84,31.8t-32.09,32.54c-2.44,2.57-4.82,5.19-7.23,7.78C754.87,649,753.44,643.89,751.83,638.8Zm19.37-57.48A68.91,68.91,0,0,1,786.06,565a52.64,52.64,0,0,1,6.82-4.47c.39.36.8.7,1.19,1a169.49,169.49,0,0,0-13.27,10.66C777.51,575.15,774.33,578.21,771.2,581.32Zm-2.08,197.21q11-10.15,21.77-20.53,20.68-19.95,40.85-40.4t40.1-41.14q12.78-13.28,25.33-26.79,3.5,14.42,6.61,29-17.91,16.09-35.26,32.76-20.89,20.16-41.28,40.82t-40.53,41.58q-9.24,9.6-18.38,19.3Q769.05,795.9,769.12,778.53ZM886.05,608.91l0,.12q3.64,11.79,6.83,23.83-16.83,15.51-33.31,31.36-20.8,19.81-41.14,40.1t-40.4,40.85c-3.12,3.24-6.18,6.55-9.27,9.82-.3-10.18-.8-20.38-1.59-30.61,0-.34-.07-.69-.09-1q19.64-18.58,39.07-37.37,30.89-30.19,61.26-60.9,9.06-9.18,18.17-18.34A12.76,12.76,0,0,0,886.05,608.91ZM761,462.14a115.31,115.31,0,0,1,6.65-21.32,12.36,12.36,0,0,0,.75-6.33l-.16-1.07a43.13,43.13,0,0,1,1-18.76,41.89,41.89,0,0,1,8.68-16.26c8.13-9.72,20.55-16.58,33.82-19.14a65.4,65.4,0,0,1,10.07-1.17c.85-.07,1.69,0,2.54,0s1.74,0,2.24,0a24.08,24.08,0,0,1,3.85.5,49.91,49.91,0,0,1,17.25,8.2,76,76,0,0,1,15.41,14.4,53.88,53.88,0,0,1,5.56,8.39,26.7,26.7,0,0,1,2.74,7.6l.42,2.55a9.12,9.12,0,0,0,4.49,6.39,26.9,26.9,0,0,1,6.57,5.9,73.06,73.06,0,0,1,6.32,8.89c2,3.22,3.84,6.64,5.57,10.14.6,1.2,1.17,2.46,1.74,3.7-.3.17-.61.3-.9.48a44,44,0,0,0-9.19,6.88l-2.3,2.31-.08.09a.69.69,0,0,0,.18.95h0a51.29,51.29,0,0,1-3.16,14.22,40.36,40.36,0,0,1-7,12c-5.82,7-14.08,11.17-23.22,13.51a7.42,7.42,0,0,0-5.55,7.79l0,.36c.57,6.9,1.34,13.78,2.25,20.65q.67,5.14,1.54,10.28c.41,2.22.8,4.44,1.21,6.66-.39.23-.8.47-1.17.65-1.17.68-2.42,1.23-3.62,1.8a42.76,42.76,0,0,1-7.4,2.57,36.89,36.89,0,0,1-7.52,1.23,38.81,38.81,0,0,1-7.5-.19,49.92,49.92,0,0,1-7.64-1.87,78.83,78.83,0,0,1-7.88-3.27c-2.62-1.29-5.29-2.67-7.9-4.23-1.32-.75-2.61-1.57-3.93-2.36l-1.46-.92c2.26-12.12,4.38-23.7,6.12-35.09a7.71,7.71,0,0,0,.08-.84,8.47,8.47,0,0,0-8-8.91l-1.57-.08c-1.2-.07-3.29-.25-4.94-.52a46.48,46.48,0,0,1-5.17-1.09,36.5,36.5,0,0,1-9.23-3.75c-5.45-3.23-8.84-7.45-10.42-12.85a29.28,29.28,0,0,1-1.18-9A53,53,0,0,1,761,462.14ZM550,338.66l.67-.51c1.4-1.12,2.53-2.18,3.65-3.26,2.21-2.14,4.16-4.29,6.06-6.47,3.17-3.64,6-7.42,8.79-11.28-1.93,12.88-3.86,25.74-5.87,38.6-.07.48-.15,1-.23,1.44a78.61,78.61,0,0,0-13.27-5.33C549.86,347.48,549.94,343.08,550,338.66Zm9.07,108.82c3.39-3.42,6.75-6.92,10-10.58a115.27,115.27,0,0,0,9.68-12l0,0a9.69,9.69,0,0,0,1.59-6.72c-1.74-13.24-.38-26.31,6.47-34.92s19.07-13.45,32.43-15.48a158,158,0,0,1,20.81-1.65,84,84,0,0,1,19.81,1.54,57.53,57.53,0,0,1,32.72,19.47c8.64,10,14.26,22.94,17.43,36.51.75,3.41,1.45,6.86,1.91,10.35s.76,7,1.37,10.54c1.06,7.06,2.68,14.3,2.19,21.57a78.7,78.7,0,0,1-15.61,39.66A94.85,94.85,0,0,1,685.35,521a82.48,82.48,0,0,1-8.33,6.2,53.19,53.19,0,0,1-8.69,4.77l-.09,0a5,5,0,0,0-3.09,4.88c.39,7.87,1.1,15.71,1.65,23.57.44,5.45.78,10.91,1.06,16.38-.9.46-1.86,1-2.73,1.43-1.66.82-3.21,1.74-4.85,2.51-3.22,1.62-6.35,3.16-9.42,4.44a59,59,0,0,1-16.9,4.87,72.16,72.16,0,0,1-18.43-1.25c-3.36-.6-6.83-1.44-10.41-2.39-1.69-.39-3.44-.92-5.17-1.44l8.68-45.26a5.94,5.94,0,0,0-3.78-6.69l-.45-.17c-11.39-4.17-21.2-11.16-27-20.7a45.73,45.73,0,0,1-5.92-15.65,53.32,53.32,0,0,1-.85-8.47c0-1.42,0-2.84.08-4.24a32.91,32.91,0,0,1,.41-3.76,8.13,8.13,0,0,0-3.61-8.45l-.46-.29c-6.6-4.17-13.25-8.25-19.89-12.35C551.18,455.23,555.15,451.43,559.05,447.48ZM333.28,965.17l-.78-5.84q-1.56-12.26-2.83-24.56c-.05-.49-.08-1-.13-1.48q20.58-19.45,40.9-39.17c18.67-17.89,36.9-36.21,55.31-54.35s36.6-36.5,54.64-55q17.26-18,34.33-36.09,3.39,14.48,5.66,29.38-21.11,19.63-41.83,39.64Q451,844.51,424,871.85c-18,18.25-36.14,36.33-53.87,54.83Q351.58,945.79,333.28,965.17Zm12.31-269.52c.74-1.81,1.52-3.59,2.32-5.34,3.07-2.86,6.11-5.75,9.1-8.7Q364.84,674,372.2,666c1.13-1.28,2.23-2.6,3.35-3.89l18.35,13.2q-10.36,10.05-20.6,20.22-18.56,18.32-36.64,37.09c-1,1-2,2.13-3,3.19A229.47,229.47,0,0,1,345.59,695.65Zm-19.17,91.89q.93-11.46,2.39-22.77,10.45-9.56,20.68-19.35,18.79-18.06,37.09-36.63,12.06-12.13,23.91-24.45a15.1,15.1,0,0,0,10.44-3.15l.34-.27L456.91,653a82.66,82.66,0,0,1,10.68,7.3q-16.18,15-32.12,30.22Q412,713.24,389.08,736.46t-45.63,46.69q-9,9.33-18,18.77Q325.86,794.72,326.42,787.54Zm167-95.88Q473.74,710.2,454.31,729c-17.65,16.88-34.87,34.19-52.27,51.32s-34.58,34.48-51.61,52q-12.89,13.42-25.69,26.91c-.29-11.45-.36-22.88-.13-34.27q15.64-14.69,31.07-29.58,23.58-22.57,46.69-45.63t45.93-46.39q15.36-16.1,30.49-32.41A122,122,0,0,1,493.45,691.66ZM325.78,885.51c-.08-1.57-.15-3.13-.22-4.69q19-17.69,37.7-35.67,26.25-25.54,52-51.61c17.13-17.4,34.44-34.62,51.31-52.28q17.11-17.62,34-35.51a213.81,213.81,0,0,1,9.58,25.86q-21.47,20-42.54,40.32-27.76,27.06-55,54.64c-18.14,18.41-36.46,36.64-54.34,55.31q-15.33,15.75-30.47,31.68C327,904.21,326.29,894.86,325.78,885.51ZM349.64,473a4.21,4.21,0,0,0,.43-2.42v-.06h0a80.86,80.86,0,0,1,2.14-25.09c2.08-8,5.88-15.39,11.46-20.59s13.07-8,21.09-8.7,16.45.26,24.77,2a6.46,6.46,0,0,0,1.92.11h.05c9.14-.91,18.3-.42,26.51,2.4a44.59,44.59,0,0,1,20.8,14.78c10.89,13.94,15.92,32.84,18.49,51.65,1.29,9.48,2,19.11,2.34,28.81.2,4.85.37,9.71.46,14.6l.13,7.35c0,2.41.1,5.12,0,6.89-.37,7.92-5.46,15.07-12.5,20.61S451.87,575,443.2,577.77h0l-.47.14c-.19.07-.39.15-.58.24a4,4,0,0,0-1.79,5.41c5.92,11.79,12.21,23.69,18.61,36l-4.38,2.4a6.81,6.81,0,0,0-5.75,1.62c-1.41,1.27-2.79,2.57-4.2,3.85l-34.22,18.79-32.58-14,6.15-44.1,0-.21a4,4,0,0,0-3.66-4.35l-.52-.05h0a28.47,28.47,0,0,1-26.39-13.61,54.35,54.35,0,0,1-6.65-15.16A78.23,78.23,0,0,1,344,538.08v-.16a1.49,1.49,0,0,0-1.21-1.39h0l-22.07-7.25ZM145.07,449.75l.21,0C145.45,449.69,145.22,449.74,145.07,449.75ZM167,487.41a40.45,40.45,0,0,1-13.45-18.91,55.21,55.21,0,0,1-2.75-12.4l-.67-6.76c-.07-.61-.15-1.26-.29-2a7.9,7.9,0,0,0-1.09-2.9,4.73,4.73,0,0,0-3-2.07,3.86,3.86,0,0,0-1-.08c-.23,0-.82.1-.75.08l-.07,0c-.15,0-.5-.05-.88-.12-3.38-.82-7.13-3.83-10.27-6.95-.41-.41-.84-.81-1.26-1.22,3.51-5.68,7-11.37,10.61-16.95,2.52-3.94,5.06-7.85,7.63-11.68s5.19-7.62,7.75-10.95a10.92,10.92,0,0,0,2.21-5.6l.14-1.39c1.33-13.69,5-26.63,11.69-35.33s16.14-13.38,28.48-15.53a124.53,124.53,0,0,1,19.75-1.48l5.27.05c1.47.13,3,.09,4.42.31a57.67,57.67,0,0,1,8.46,1.44c10.84,2.82,20.08,9.13,27.36,18.51s12.46,21.4,15.55,34.31a138.37,138.37,0,0,1,3.74,40.27c-.75,13.43-3.69,26.58-9.61,37.82a58.49,58.49,0,0,1-26.71,26l-1.28.6a9.92,9.92,0,0,0-5.59,10c1.55,14.56,3.39,29.34,5.37,44.54l0,.21-1.59,1.27c-1.35,1-2.66,2-4,2.94a68.64,68.64,0,0,1-8.22,4.92,40.71,40.71,0,0,1-16.54,4.45,53.09,53.09,0,0,1-17.3-2.6,61.89,61.89,0,0,1-8.35-3.58c-1.41-.67-2.74-1.48-4.09-2.28-.39-.23-.82-.5-1.24-.77,1.65-6.91,3.06-13.85,4.31-20.81,1.47-8.4,2.77-16.82,3.83-25.28l0-.28a9.1,9.1,0,0,0-6.25-9.77C179.8,495.12,172.86,492.07,167,487.41Zm15.89,64.72Zm-118-201.85.06.29C64.87,350.24,64.82,349.69,64.91,350.28Zm-22.14,7.49c.09-.24.07-.15,0-.1l0,.12Zm-.09.13,0,0-.06.1C42.57,358,42.67,358,42.68,357.9Zm-.57,177.35,0,0C42.05,535.2,42,535.15,42.11,535.25ZM291.23,731.8a446.13,446.13,0,0,0-7,52.4c-2.67,34.82-2.34,69.35-.4,103.64.05.83.12,1.65.17,2.47-12.24-.16-24.52-.79-36.79-2a498,498,0,0,1-55.51-8.65A547.18,547.18,0,0,1,137.16,865q-13.47-4.38-26.68-9.46c-6.42-2.49-13-5.15-19.16-7.92,2.59-17.62,5.39-35.3,8.36-52.9,3.41-20.05,7-40.08,10.9-60s8-39.77,12.69-59.4,9.69-39.1,15.57-58l0-.16c.1-.32.19-.65.27-1a17.87,17.87,0,0,0-13.07-21.64,17.64,17.64,0,0,0-8.58.09c-16.36-12.36-32.75-24.74-48.83-37.2-4.88-3.83-9.74-7.68-14.44-11.58-2.34-2-4.68-3.9-6.85-5.85-1.12-1-2.24-1.94-3.2-2.85l-1.51-1.39-.26-.25a11.21,11.21,0,0,1-.59-1.2c-.38-.94-.79-2-1.17-3.24-.77-2.4-1.46-5.13-2.07-7.92-1.22-5.6-2.16-11.54-3-17.5a495.54,495.54,0,0,1-3.47-73.31c.31-12.25,1-24.46,2.46-36.44s3.46-23.82,6.8-34.35q.63-1.92,1.32-3.75a11.86,11.86,0,0,1,3.46-2.18,37.48,37.48,0,0,1,13.33-3,24,24,0,0,1,5.87.4c.2,1.14.37,2.32.56,3.48.41,2.85.75,5.78,1,8.74,2.12,23.94,1.43,49.15,1.32,74.37,0,12.69-.28,25.31.69,38.63a101.33,101.33,0,0,0,1.29,10.44,36.79,36.79,0,0,0,1.56,6l.65,1.7.69,1.4a29.51,29.51,0,0,0,1.45,2.64c4,6.64,8.68,11.43,13.25,16.34,18.78,18.71,38.79,34.08,59.85,49a9.12,9.12,0,0,0,10.6,0l.21-.15A86.63,86.63,0,0,1,169.46,559a6.33,6.33,0,0,0,1.27,2.38h0a41.64,41.64,0,0,0,4.09,5.9,49.05,49.05,0,0,0,16,12.39,56.66,56.66,0,0,0,13,4.36,59.56,59.56,0,0,0,13.8.84A49,49,0,0,0,243.43,575a54.85,54.85,0,0,0,9.49-9.06,56.09,56.09,0,0,0,3.79-5.2c.18-.28.34-.57.52-.86,1.57,1,3.11,2.11,4.6,3.28,14.07,11,24.2,27.31,30.79,45.26s10.54,37.37,12.87,57c.53,4.51.95,9,1.32,13.57-.07.16-.15.32-.21.48A277.45,277.45,0,0,0,291.23,731.8ZM372,971.86c-8.8,1-17.63,1.86-26.48,2.37q18.52-17.55,36.84-35.31C400.9,921.19,419,903,437.22,885.05s36.28-36.18,54.16-54.53Q507.24,814,523,797.38q1.77,15.82,2.64,31.86-14.3,13-28.26,26.42-20.82,20.08-41.13,40.68t-40.39,41.43q-15.39,16-30.43,32.28Q378.72,971.06,372,971.86Zm55.38-9.75q-7.73,1.71-15.5,3.26,8.1-7.65,16.14-15.36,21-19.95,41.43-40.39t40.68-41.14c5.47-5.67,10.87-11.42,16.25-17.18.21,11,.14,22.11-.12,33.19-3.81,3.37-7.59,6.78-11.29,10.25q-12.33,11.6-24.15,23.69c-7.94,8-15.73,16.16-23.44,24.4q-5.39,5.79-10.68,11.69Q442.18,958.71,427.41,962.11Zm96.4-31.84-3.2,1.4c-4.24,1.83-8.52,3.65-12.84,5.38-4.94,2-9.94,3.88-15,5.71q5.7-5.47,11.32-11,10.77-10.54,21.12-21.47c-.1,1.79-.19,3.58-.3,5.37C524.62,920.47,524.24,925.42,523.81,930.27ZM725.68,825.7q-1.33,24.63-3.89,49.26-1.26,12.3-2.82,24.55l-1.65,12.21-.47,3.25c-3.14-.12-6.27-.25-9.4-.44-9.36-.49-18.71-1.39-28-2.48a558.86,558.86,0,0,1-55.38-9.76A542.64,542.64,0,0,1,570,887c-2.05-.7-4.08-1.45-6.13-2.17.75-14.54,1-29.11.86-43.72-.43-34.6-3.3-69.51-11.44-104.27A277.27,277.27,0,0,0,537,687.57c.1-.39.17-.8.27-1.19,3.81-15.29,8.62-30.18,15.11-43.78s14.46-26,24.24-35.7a87.23,87.23,0,0,1,9.31-8,58.94,58.94,0,0,0,19.19,16.47,57.73,57.73,0,0,0,61.11-2.5,70.12,70.12,0,0,0,11.48-9.37c1.43-1.52,2.83-3,4.13-4.63,8.77,9.43,18.76,24.2,24,37a236.36,236.36,0,0,1,12.82,44.35A434.41,434.41,0,0,1,725,727.73C727.63,760,727.45,792.85,725.68,825.7Zm47.14,5.14Q786,818.56,799,806.1q21-20,41.57-40.53t40.83-41.28q13.24-13.75,26.09-27.89.82,4,1.63,8.09,2.1,10.72,4,21.5-12.45,10.74-24.37,22-14.81,14.09-29.12,28.66T831.23,806q-10.17,10.77-20.05,21.85c-4.42.58-8.83,1.11-13.26,1.54C789.55,830.23,781.18,830.63,772.82,830.84Zm70.24-8.47c-1.63.35-3.28.65-4.92,1,1.8-1.68,3.62-3.33,5.41-5q14.85-14,29.37-28.41t28.66-29.12q7.54-7.95,14.84-16.14c.5,2.87,1,5.74,1.51,8.62q1.74,10.29,3.38,20.63-4.38,3.23-8.48,6.73c-4.16,3.67-8.14,7.52-12,11.51s-7.61,8-11.26,12.22q-3.06,3.57-6,7.26Q863.57,818,843.06,822.37Zm79-25c.82-.87,1.64-1.75,2.45-2.65.07.5.15,1,.23,1.51C923.85,796.63,922.94,797,922.05,797.38Zm45.56-264.93c-.49,2.27-1.05,4.49-1.68,6.44a23.93,23.93,0,0,1-1.4,3.59l-.24.22-1.23,1.13c-.77.75-1.69,1.53-2.6,2.33-1.77,1.58-3.67,3.17-5.57,4.75-3.82,3.17-7.77,6.3-11.74,9.42-13.08,10.13-26.4,20.19-39.7,30.24a14.33,14.33,0,0,0-1.59-.29c8.77-8.88,17.52-17.77,26.18-26.77q21-21.51,41.69-43.32C969.14,524.37,968.47,528.52,967.61,532.45Z"/></svg>