<?xml version="1.0" encoding="utf-8"?>
<!-- Generator: Adobe Illustrator 25.2.1, SVG Export Plug-In . SVG Version: 6.00 Build 0)  -->
<svg version="1.1" id="Layer_1" xmlns="http://www.w3.org/2000/svg" xmlns:xlink="http://www.w3.org/1999/xlink" x="0px" y="0px"
	 viewBox="0 0 600 162" style="enable-background:new 0 0 600 162;" xml:space="preserve">
<style type="text/css">
	.st0{fill:#B1004C;}
	.st1{fill:#FFFFFF;}
	.st2{clip-path:url(#SVGID_1_);fill:#FFFFFF;}
</style>
<rect x="172.5" class="st0" width="427.5" height="96.4"/>
<rect x="172.5" y="107.4" class="st0" width="250.6" height="54.6"/>
<polygon class="st1" points="194.8,20.6 221,20.6 221,31.2 205.5,31.2 205.5,41.8 219.9,41.8 219.9,52.4 205.5,52.4 205.5,64.6 
	221.3,64.6 221.3,75.3 194.8,75.3 "/>
<polygon class="st1" points="225.5,20.6 233.6,20.6 246.7,52.8 246.7,20.6 257.5,20.6 257.5,75.3 248.8,75.3 236.3,46.2 236.3,75.3 
	225.5,75.3 "/>
<polygon class="st1" points="262.5,20.6 273.3,20.6 273.3,42.5 284.1,42.5 284.1,20.6 294.9,20.6 294.9,75.3 284.1,75.3 284.1,53.1 
	273.3,53.1 273.3,75.3 262.5,75.3 "/>
<polygon class="st1" points="299.9,20.6 326.2,20.6 326.2,31.2 310.7,31.2 310.7,41.8 325,41.8 325,52.4 310.7,52.4 310.7,64.6 
	326.5,64.6 326.5,75.3 299.9,75.3 "/>
<g>
	<path class="st1" d="M330.7,20.6h21.4c11.9,0,25.5,8.5,25.5,27.3c0,18.1-13.7,27.3-25.8,27.3h-21.1V20.6z M351,64.6
		c7.9,0,15.7-6.1,15.7-16.9c0-10.8-7.7-16.5-15.6-16.5h-9.6v33.4H351z"/>
	<path class="st1" d="M379.7,73.7V62.6c2.4,1.2,6.6,2.8,9.6,2.8c3.7,0,6.2-1.9,6.2-5.2c0-7.6-16.9-12-16.9-25.6
		c0-9.4,8.1-14.7,16.8-14.7c4.6,0,8.5,1.4,9.5,2.2V33c-2.4-1.1-6.5-2.5-9.4-2.5c-3.5,0-6,1.6-6,4.5c0,6.1,16.9,12.2,16.9,25.6
		c0,10-7.9,15.6-16.6,15.6C385.8,76,381.7,74.7,379.7,73.7"/>
	<polygon class="st1" points="434.3,64.6 434.3,75.3 410,75.3 410,20.6 420.8,20.6 420.8,64.6 	"/>
	<rect x="437.8" y="20.6" class="st1" width="10.8" height="54.7"/>
	<path class="st1" d="M453,73.7V62.6c2.4,1.2,6.6,2.8,9.6,2.8c3.7,0,6.2-1.9,6.2-5.2c0-7.6-16.9-12-16.9-25.6
		c0-9.4,8.1-14.7,16.8-14.7c4.6,0,8.5,1.4,9.5,2.2V33c-2.4-1.1-6.5-2.5-9.4-2.5c-3.5,0-6,1.6-6,4.5c0,6.1,16.9,12.2,16.9,25.6
		c0,10-7.9,15.6-16.6,15.6C459.1,76,455,74.7,453,73.7"/>
	<polygon class="st1" points="512.6,31.2 502.4,31.2 502.4,75.3 491.6,75.3 491.6,31.2 481.4,31.2 481.4,20.6 512.6,20.6 	"/>
	<polygon class="st1" points="515.7,20.6 542,20.6 542,31.2 526.5,31.2 526.5,41.8 540.8,41.8 540.8,52.4 526.5,52.4 526.5,64.6 
		542.3,64.6 542.3,75.3 515.7,75.3 	"/>
	<polygon class="st1" points="546.5,20.6 554.6,20.6 567.7,52.8 567.7,20.6 578.5,20.6 578.5,75.3 569.8,75.3 557.3,46.2 
		557.3,75.3 546.5,75.3 	"/>
	<polygon class="st1" points="207.1,150.8 201.1,135.1 201.1,150.8 194.8,150.8 194.8,118.6 201.1,118.6 201.1,134 207,118.6 
		214,118.6 207.4,134.5 214.1,150.8 	"/>
	<path class="st1" d="M247.1,134.7c0,8.9-7.3,16.6-16.3,16.6c-3.5,0-6.8-1.2-9.5-3.1l-2.3,2.4l-3.2-3.1l2.3-2.4
		c-2.2-2.9-3.5-6.4-3.5-10.3c0-8.9,7.3-16.6,16.3-16.6c3.6,0,7,1.3,9.7,3.3l2.5-2.6l3.3,3.4l-2.5,2.6
		C245.9,127.6,247.1,131.1,247.1,134.7 M222.7,140.2l13.5-14.1c-1.5-1-3.4-1.7-5.3-1.7c-5.4,0-9.8,4.9-9.8,10.3
		C221,136.7,221.6,138.6,222.7,140.2 M240.7,134.7c0-1.8-0.5-3.6-1.4-5.2l-13.5,14c1.5,1,3.2,1.5,5,1.5
		C236.3,145,240.7,140.1,240.7,134.7"/>
	<path class="st1" d="M250.8,118.6h9c5.7,0,9.5,3.9,9.5,8.5c0,3.9-3,6.5-5.4,7.2c2.4,0.5,5.7,2.7,5.7,7.3c0,5.8-4.1,9.2-9,9.2h-9.8
		V118.6z M258.9,131.4c2.4,0,3.9-1.3,3.9-3.6c0-2.3-1.7-3.4-3.9-3.4h-1.8v7.1H258.9z M259.4,145c2.6,0,3.8-2.1,3.8-4.2
		c0-2.1-1.5-3.8-4-3.8h-2v7.9H259.4z"/>
	<polygon class="st1" points="273.5,118.6 288.9,118.6 288.9,124.8 279.8,124.8 279.8,131.1 288.3,131.1 288.3,137.3 279.8,137.3 
		279.8,144.5 289.1,144.5 289.1,150.8 273.5,150.8 	"/>
	<polygon class="st1" points="293.2,118.6 298,118.6 305.7,137.5 305.7,118.6 312,118.6 312,150.8 306.9,150.8 299.6,133.6 
		299.6,150.8 293.2,150.8 	"/>
	<polygon class="st1" points="316.6,118.6 322.9,118.6 322.9,131.5 329.3,131.5 329.3,118.6 335.7,118.6 335.7,150.8 329.3,150.8 
		329.3,137.7 322.9,137.7 322.9,150.8 316.6,150.8 	"/>
	<path class="st1" d="M352.2,145.8h-6.4l-0.8,4.9h-6.5l6.4-32.2h8.3l6.4,32.2H353L352.2,145.8z M351.2,139.7l-2.2-13.4l-2.2,13.4
		H351.2z"/>
	<polygon class="st1" points="358.2,118.6 364.5,118.6 368.7,141.8 372.9,118.6 379.3,118.6 372.6,150.8 365,150.8 	"/>
	<polygon class="st1" points="382.1,118.6 386.8,118.6 394.5,137.5 394.5,118.6 400.9,118.6 400.9,150.8 395.8,150.8 388.4,133.6 
		388.4,150.8 382.1,150.8 	"/>
</g>
<rect class="st0" width="162" height="162"/>
<g>
	<defs>
		<rect id="SVGID_7_" width="162" height="162"/>
	</defs>
	<clipPath id="SVGID_1_">
		<use xlink:href="#SVGID_7_"  style="overflow:visible;"/>
	</clipPath>
	<path class="st2" d="M134.4,80.1c0,29.3-23.9,54.5-53.6,54.5c-11.6,0-22.4-3.9-31.2-10.3l-7.6,7.8l-10.6-10.3l7.5-7.9
		c-7.3-9.4-11.6-21.2-11.6-33.7c0-29.3,23.9-54.5,53.6-54.5c11.9,0,23,4.2,31.9,10.9l8.2-8.5l10.9,11l-8.2,8.5
		C130.4,56.9,134.4,68.2,134.4,80.1 M53.5,97.8l44.2-46.3c-5-3.4-11-5.5-17.4-5.5c-17.8,0-32.2,16.2-32.2,33.7
		C48.2,86.3,50.1,92.5,53.5,97.8 M113.2,80.1c0-6-1.6-11.8-4.6-17l-44.3,46c4.9,3.1,10.4,4.9,16.6,4.9
		C98.8,114,113.2,97.9,113.2,80.1"/>
</g>
</svg>
