<?xml version="1.0" encoding="utf-8"?>
<!-- Generator: Adobe Illustrator 25.2.1, SVG Export Plug-In . SVG Version: 6.00 Build 0)  -->
<svg version="1.1" id="Layer_1" xmlns="http://www.w3.org/2000/svg" xmlns:xlink="http://www.w3.org/1999/xlink" x="0px" y="0px"
	 viewBox="0 0 162 208" style="enable-background:new 0 0 162 208;" xml:space="preserve">
<style type="text/css">
	.st0{fill:#B1004C;}
	.st1{fill:#FFFFFF;}
	.st2{clip-path:url(#SVGID_1_);fill:#FFFFFF;}
</style>
<g>
	<rect y="172.7" class="st0" width="162" height="35.3"/>
	<g>
		<polygon class="st1" points="22.4,200.7 18.5,190.6 18.5,200.7 14.4,200.7 14.4,179.9 18.5,179.9 18.5,189.9 22.3,179.9 
			26.8,179.9 22.6,190.2 26.9,200.7 		"/>
		<path class="st1" d="M48.2,190.3c0,5.7-4.7,10.7-10.5,10.7c-2.3,0-4.4-0.8-6.1-2l-1.5,1.5l-2.1-2l1.5-1.6
			c-1.4-1.8-2.3-4.2-2.3-6.6c0-5.7,4.7-10.7,10.5-10.7c2.3,0,4.5,0.8,6.3,2.1l1.6-1.7l2.1,2.2l-1.6,1.7
			C47.5,185.8,48.2,188,48.2,190.3 M32.4,193.9l8.7-9.1c-1-0.7-2.2-1.1-3.4-1.1c-3.5,0-6.4,3.2-6.4,6.7
			C31.4,191.6,31.7,192.9,32.4,193.9 M44.1,190.3c0-1.2-0.3-2.3-0.9-3.3l-8.7,9c1,0.6,2.1,1,3.3,1C41.2,197,44.1,193.8,44.1,190.3"
			/>
		<path class="st1" d="M50.6,179.9h5.8c3.7,0,6.1,2.5,6.1,5.5c0,2.5-2,4.2-3.5,4.7c1.6,0.3,3.7,1.8,3.7,4.7c0,3.8-2.6,5.9-5.8,5.9
			h-6.3V179.9z M55.9,188.2c1.6,0,2.5-0.9,2.5-2.3c0-1.5-1.1-2.2-2.5-2.2h-1.1v4.6H55.9z M56.1,197c1.7,0,2.5-1.3,2.5-2.7
			c0-1.4-1-2.4-2.6-2.4h-1.3v5.1H56.1z"/>
		<polygon class="st1" points="65.3,179.9 75.3,179.9 75.3,184 69.4,184 69.4,188 74.8,188 74.8,192 69.4,192 69.4,196.7 
			75.4,196.7 75.4,200.7 65.3,200.7 		"/>
		<polygon class="st1" points="78,179.9 81.1,179.9 86.1,192.2 86.1,179.9 90.2,179.9 90.2,200.7 86.9,200.7 82.1,189.7 82.1,200.7 
			78,200.7 		"/>
		<polygon class="st1" points="93.1,179.9 97.2,179.9 97.2,188.3 101.4,188.3 101.4,179.9 105.5,179.9 105.5,200.7 101.4,200.7 
			101.4,192.3 97.2,192.3 97.2,200.7 93.1,200.7 		"/>
		<path class="st1" d="M116.1,197.5H112l-0.5,3.2h-4.2l4.1-20.8h5.4l4.1,20.8h-4.2L116.1,197.5z M115.5,193.6l-1.4-8.7l-1.4,8.7
			H115.5z"/>
		<polygon class="st1" points="120,179.9 124.1,179.9 126.8,194.9 129.5,179.9 133.7,179.9 129.3,200.7 124.4,200.7 		"/>
		<polygon class="st1" points="135.5,179.9 138.5,179.9 143.5,192.2 143.5,179.9 147.6,179.9 147.6,200.7 144.3,200.7 139.6,189.7 
			139.6,200.7 135.5,200.7 		"/>
	</g>
</g>
<rect y="0.2" class="st0" width="162" height="162"/>
<g>
	<defs>
		<rect id="SVGID_7_" width="162" height="162"/>
	</defs>
	<clipPath id="SVGID_1_">
		<use xlink:href="#SVGID_7_"  style="overflow:visible;"/>
	</clipPath>
	<path class="st2" d="M134.4,80.1c0,29.3-23.9,54.5-53.6,54.5c-11.6,0-22.4-3.9-31.2-10.3l-7.6,7.8l-10.6-10.3l7.5-7.9
		c-7.3-9.4-11.6-21.2-11.6-33.7c0-29.3,23.9-54.5,53.6-54.5c11.9,0,23,4.2,31.9,10.9l8.2-8.5l10.9,11l-8.2,8.5
		C130.4,56.9,134.4,68.2,134.4,80.1 M53.5,97.8l44.2-46.3c-5-3.4-11-5.5-17.4-5.5c-17.8,0-32.2,16.2-32.2,33.7
		C48.2,86.3,50.1,92.5,53.5,97.8 M113.2,80.1c0-6-1.6-11.8-4.6-17l-44.3,46c4.9,3.1,10.4,4.9,16.6,4.9
		C98.8,114,113.2,97.9,113.2,80.1"/>
</g>
</svg>
