<?xml version="1.0" encoding="utf-8"?>
<!-- Generator: Adobe Illustrator 24.3.0, SVG Export Plug-In . SVG Version: 6.00 Build 0)  -->
<svg version="1.1" id="Layer_1" xmlns="http://www.w3.org/2000/svg" xmlns:xlink="http://www.w3.org/1999/xlink" x="0px" y="0px"
	 viewBox="0 0 295.1 300" style="enable-background:new 0 0 295.1 300;" xml:space="preserve">
<style type="text/css">
	.st0{fill:#FFFFFF;}
</style>
<path class="st0" d="M257.4,155H37.7c-2.8,0-5-2.2-5-5l0,0c0-2.8,2.2-5,5-5h219.7c2.8,0,5,2.2,5,5l0,0
	C262.4,152.8,260.1,155,257.4,155z"/>
<path class="st0" d="M257.4,263.4H37.7c-2.8,0-5-2.2-5-5l0,0c0-2.8,2.2-5,5-5h219.7c2.8,0,5,2.2,5,5l0,0
	C262.4,261.1,260.1,263.4,257.4,263.4z"/>
<path class="st0" d="M257.4,46.6H37.7c-2.8,0-5-2.2-5-5v0c0-2.8,2.2-5,5-5h219.7c2.8,0,5,2.2,5,5v0
	C262.4,44.4,260.1,46.6,257.4,46.6z"/>
</svg>
