<svg xmlns="http://www.w3.org/2000/svg" viewBox="0 0 295.06 300"><defs><style>.cls-1{fill:#fff;}</style></defs><g id="Layer_2" data-name="Layer 2"><g id="Layer_1-2" data-name="Layer 1"><path class="cls-1" d="M295.06,150c0,80.56-65.75,150-147.53,150a145.41,145.41,0,0,1-85.89-28.36L40.69,293,11.51,264.65l20.55-21.79A151.2,151.2,0,0,1,0,150C0,69.45,65.75,0,147.53,0c32.88,0,63.28,11.51,87.94,30l22.6-23.42,30,30.41-22.6,23.42C284,85.9,295.06,117.12,295.06,150ZM73.15,200.13,195.62,71.91c-14-9.45-30.42-15.19-48.09-15.19-49.32,0-89.17,44.79-89.17,93.27A92.9,92.9,0,0,0,73.15,200.13ZM236.71,150A94.23,94.23,0,0,0,224,103.15l-122,126.56a83.65,83.65,0,0,0,45.62,13.57C196.84,243.28,236.71,198.9,236.71,150Z"/></g></g></svg>