<?xml version="1.0" encoding="utf-8"?>
<!-- Generator: Adobe Illustrator 25.0.0, SVG Export Plug-In . SVG Version: 6.00 Build 0)  -->
<svg version="1.1" xmlns="http://www.w3.org/2000/svg" xmlns:xlink="http://www.w3.org/1999/xlink" x="0px" y="0px"
	 viewBox="0 0 1432 1080" style="enable-background:new 0 0 1432 1080;" xml:space="preserve">
<style type="text/css">
	.st0{clip-path:url(#SVGID_2_);}
	.st1{fill:url(#SVGID_3_);}
	.st2{fill:url(#SVGID_4_);}
	.st3{fill:#E77693;}
	.st4{fill:#F7AA0B;}
	.st5{fill:url(#SVGID_5_);}
	.st6{fill:#D00D50;}
	.st7{fill:url(#SVGID_6_);}
	.st8{fill:#702583;}
	.st9{fill:#097266;}
	.st10{fill:#23A06B;}
	.st11{fill:#F4A6BA;}
	.st12{fill:#75B095;}
	.st13{fill:url(#SVGID_7_);}
	.st14{fill:none;}
	.st15{display:none;}
	.st16{display:inline;fill-rule:evenodd;clip-rule:evenodd;}
</style>
<g id="Lag_2">
	<g>
		<defs>
			<rect id="SVGID_1_" width="1432" height="1080"/>
		</defs>
		<clipPath id="SVGID_2_">
			<use xlink:href="#SVGID_1_"  style="overflow:visible;"/>
		</clipPath>
		<g class="st0">
			
				<linearGradient id="SVGID_3_" gradientUnits="userSpaceOnUse" x1="95.9977" y1="587.9696" x2="976.8868" y2="587.9696" gradientTransform="matrix(-0.6833 -1.8564 -3.1493 0.3517 3159.8223 1114.2603)">
				<stop  offset="0" style="stop-color:#400000"/>
				<stop  offset="1" style="stop-color:#820032"/>
			</linearGradient>
			<path class="st1" d="M1228.4,1102.4c0.3-0.3,0.5-0.6,0.8-0.9c-1.2,0-2.4,0-3.6,0c0.8,0.4,1.6,0.8,2.4,1.3
				C1228.1,1102.7,1228.2,1102.5,1228.4,1102.4z"/>
			
				<linearGradient id="SVGID_4_" gradientUnits="userSpaceOnUse" x1="95.9977" y1="586.0719" x2="976.8868" y2="586.0719" gradientTransform="matrix(-0.6833 -1.8564 -3.1493 0.3517 3159.8223 1114.2603)">
				<stop  offset="0" style="stop-color:#400000"/>
				<stop  offset="1" style="stop-color:#820032"/>
			</linearGradient>
			<path class="st2" d="M1118.4,1097.2c-28-2.5-56.2-6.1-83.9-10.9c-204-35.3-321.6-131-296.3-239.2
				c57.3-237.6,324.9-424.9,457.4-572c187.7-208.8,244.9-441.2-202.4-643.6c-211.3-13.8-423.4-21.9-635.6-26
				c292.3,73.8,444.3,168,528.1,254.6c116.2,120.3,120.3,241,89.2,367.6c-21.6,86.7-61.6,187.4-138.2,303.1
				C758.1,649.3,638.2,769.7,636,886.9c-1.3,104,133.8,190.7,337.5,226.7c22.1,0.8,44.3,1.8,66.4,3c31,1.7,62,4.8,93.1,6
				c3.5,0.1,7.1,0.3,10.6,0.4C1134.5,1115.1,1126.1,1106.6,1118.4,1097.2z"/>
			<path class="st3" d="M1228.4,1102.4c0.3-0.3,0.5-0.6,0.8-0.9c-1.2,0-2.4,0-3.6,0c0.8,0.4,1.6,0.8,2.4,1.3
				C1228.1,1102.7,1228.2,1102.5,1228.4,1102.4z"/>
			<path class="st3" d="M1118.4,1097.2c-28-2.5-56.2-6.1-83.9-10.9c-204-35.3-321.6-131-296.3-239.2
				c57.3-237.6,324.9-424.9,457.4-572c187.7-208.8,244.9-441.2-202.4-643.6c-211.3-13.8-423.4-21.9-635.6-26
				c292.3,73.8,444.3,168,528.1,254.6c116.2,120.3,120.3,241,89.2,367.6c-21.6,86.7-61.6,187.4-138.2,303.1
				C758.1,649.3,638.2,769.7,636,886.9c-1.3,104,133.8,190.7,337.5,226.7c22.1,0.8,44.3,1.8,66.4,3c31,1.7,62,4.8,93.1,6
				c3.5,0.1,7.1,0.3,10.6,0.4C1134.5,1115.1,1126.1,1106.6,1118.4,1097.2z"/>
			<path class="st4" d="M1120.2,1099.4c-28.7-2.5-57.4-6-85.7-10.8C828.7,1053.9,708.3,958.5,731.8,850
				c53.4-238.5,321.2-428.3,449.5-577.1c179.9-209.5,234.8-442.1-227.7-643.8c-186.9-11.6-374.5-19-562.1-23
				C1056.1-231,1054.4,15.8,992.6,229.9c-24.9,85.2-67.2,184.1-144,298.3c-79.2,117.5-199.2,237.3-204.1,354.7
				c-3.7,107.9,138.9,197.8,353.4,231.6c14,0.6,28,1.3,42,2.1c31,1.7,62,4.8,93.1,6c3.5,0.1,7.1,0.3,10.6,0.4
				C1135.2,1115.7,1127.4,1107.9,1120.2,1099.4z"/>
			
				<linearGradient id="SVGID_5_" gradientUnits="userSpaceOnUse" x1="98.7223" y1="591.3542" x2="970.3393" y2="591.3542" gradientTransform="matrix(-0.6833 -1.8564 -3.1493 0.3517 3159.8223 1114.2603)">
				<stop  offset="0" style="stop-color:#BA0A50"/>
				<stop  offset="1" style="stop-color:#F01F61"/>
			</linearGradient>
			<path class="st5" d="M1122,1101.5c-29.3-2.4-58.7-5.9-87.5-10.7c-207.5-34.3-330.9-129.3-309.1-237.9
				c49.7-239.2,317.9-431.6,441.7-582.3c171.8-210.2,224.5-443.2-253.3-643.9c-159.8-9.4-320-15.7-480.3-19.5
				C1073.5-222.5,1067.7,20.3,1000,235c-27,84.5-70.9,182.7-148,295.8C772.5,647.2,654.1,766,649.6,882.5
				c-3.6,110.6,147.3,202.1,372.1,233.1c6.1,0.3,12.2,0.6,18.2,1c31,1.7,62,4.8,93.1,6c3.5,0.1,7.1,0.3,10.6,0.4
				C1135.9,1116.3,1128.7,1109.2,1122,1101.5z"/>
			<path class="st6" d="M1123.9,1103.6c-30-2.4-60-5.9-89.5-10.7C825.1,1059.1,699,964.5,719,855.7
				c45.7-240,314.7-434.9,433.9-587.4c163.7-210.9,213.9-444.2-279.4-643.9C750.9-382.5,628-387.5,505.1-391
				c622.2,177.1,603.1,417.5,518.9,631.6c-32.5,82.5-80.4,178.6-158.8,289.7c-80.9,114.9-199.4,232.8-206.2,349
				c-5.9,110.9,143.7,203.1,368.2,234c15.5,2.1,31.3,4,47.3,5.6c19.5,1.4,38.9,2.9,58.5,3.7c3.5,0.1,7.1,0.2,10.6,0.4
				C1136.6,1116.9,1130,1110.5,1123.9,1103.6z"/>
			
				<linearGradient id="SVGID_6_" gradientUnits="userSpaceOnUse" x1="101.6043" y1="596.3086" x2="961.6774" y2="596.3086" gradientTransform="matrix(-0.6833 -1.8564 -3.1493 0.3517 3159.8223 1114.2603)">
				<stop  offset="0" style="stop-color:#BA0A50"/>
				<stop  offset="1" style="stop-color:#F01F61"/>
			</linearGradient>
			<path class="st7" d="M1125.8,1105.8c-30.7-2.3-61.5-5.8-91.7-10.6c-210.9-33.5-339.8-127.7-321.6-236.7
				c42.1-240.8,312.2-438.2,426.1-592.7c155.5-211.4,203-445.1-305.4-643.4c-102-5.3-204.2-9.5-306.5-12.6
				c612.8,179.9,593.9,419.4,505.6,633.5c-34,81.9-83.1,177-161.3,287.1c-81,114-198.6,231.1-206.3,347
				c-6.6,110.5,140.8,202.8,363.8,233.8c36.8,5.1,75.1,8.6,113.4,10.7C1136.4,1116.7,1131,1111.4,1125.8,1105.8z"/>
			<path class="st8" d="M1127.4,1107.5c-31.3-2.3-62.7-5.8-93.4-10.6c-212.1-33.4-342.9-127.7-324.6-237
				c41.6-241.8,313.8-440.3,429.6-595c157.8-211.5,209.5-445.6-303.3-642.5c-82.4-4.3-164.8-7.8-247.3-10.7
				c595.3,184.5,567.6,422.5,465.2,636.1c-38.7,80.2-91.3,173.4-170.4,281.8C801,642.3,683.4,758.5,673.6,874.1
				c-8.8,110.3,135.7,202.9,356.7,234.2c35.4,5,72,8.5,108.7,10.6C1135,1115.3,1131.1,1111.5,1127.4,1107.5z"/>
			<path class="st9" d="M892.4,529.2C849.7,586.6,798,645,756.3,704c48.1-88.1,118.4-169.9,186.5-245.1
				C927.1,481.6,910.4,505,892.4,529.2z"/>
			<path class="st9" d="M629.5-386.9c40.9,1.5,81.8,3.2,122.7,5.1c538.5,195.1,496.6,429.8,358.4,642.2
				c-39.2,60-102.4,126.2-167.8,198.5c53.4-77.6,93.6-146.4,125.8-207.6C1180.1,37.9,1211.3-199.2,629.5-386.9z"/>
			<path class="st10" d="M771.5-380.9c13.8,0.7,27.5,1.4,41.2,2.1c511.6,199,458.6,432.4,308.5,644.2
				c-26.4,37.1-61.9,76.7-101.2,118.8c28.7-39.3,54.7-76.1,78.5-110.1C1247.6,61.6,1309.7-173.3,771.5-380.9z"/>
			<path class="st8" d="M896.8,545.2C843.8,611,781,678.3,737.8,746c61.6-135.2,183.7-256.1,282.3-361.8
				C984,433.5,943.7,487,896.8,545.2z"/>
			<path class="st11" d="M750.3,136.9c45.4,103.5,51.6,223.9-9.5,358C679.7,628.4,549.8,760,545.8,886.2
				c-2.3,92.7,95.7,174.6,254.2,221.9c45.7,1.8,91.4,2.8,137.1,4.2c12.1,0.4,24.2,0.8,36.4,1.2c-203.7-36-338.7-122.7-337.5-226.7
				c2.2-117.2,122.1-237.6,200.7-356.1c76.5-115.7,116.6-216.4,138.2-303.1c31.1-126.6,27-247.3-89.2-367.6
				C801.9-226.4,650-320.6,357.7-394.4c-69-1.3-138-2.3-207-2.8c-16.4-0.1-32.9-0.2-49.4-0.2c-9.7,0.5-19.4,1-29.3,1.3
				c-41.9,1.4-84.1,0.8-126.4-0.2c-173.9,2-349.6,4.9-521.5-7.5c-47.4,6.1-94.2,13.1-140.2,21.2l-0.3,13.7
				c201.6-12.5,382-4.7,531.3,13c201.4,23.9,350.5,64.5,464.8,108C409.2-198.6,501-143.1,573.5-84.1
				C655.9-17.1,714.8,56.5,750.3,136.9z"/>
			<path class="st4" d="M766.6,144c40,102.5,42.5,221.4-20,354.2C684.1,630.7,555.3,761.5,551.8,887c-1.9,93,97.9,174.8,258.4,221.5
				c42.3,1.5,84.6,2.5,127,3.8c7.8,0.2,15.6,0.5,23.4,0.8c-199.3-37.1-330.8-123.2-329.2-226c2.3-117.8,123.1-238.7,201.3-358
				c76.2-116.4,114.6-217.9,134.5-305C995.9,97,989.5-23.8,869.7-143.8C784-229.3,629.9-322.8,334.5-394.8
				c-61.3-1.1-122.6-2-183.9-2.4c-16.4-0.1-32.9-0.2-49.3-0.2c-9.7,0.5-19.4,1-29.3,1.3c-41.9,1.4-84.1,0.8-126.4-0.2
				c-174.3,2-350.2,4.9-522.6-7.6c-47,6.1-93.5,13.1-139.2,21.2l-0.1,5.8c230.5-13.9,432.2-2,594.6,20.7
				C74.9-328.6,218.6-286,328.1-241.2c123.6,50.6,209.9,106.7,277.4,165.9C681.8-8.3,735.5,64.7,766.6,144z"/>
			<path class="st10" d="M777,149.5c36.8,102,36.8,220.1-26.7,352c-63.5,131.7-191.4,261.7-193.8,386.4
				c-1.3,93.2,100.5,174.8,262.9,220.9c39.2,1.4,78.5,2.3,117.7,3.5c2.7,0.1,5.4,0.2,8.1,0.3c-194.4-38.2-322.1-123.3-321.3-224.5
				c1.5-118.2,122.3-239.9,199-360.4c75-118,109.6-221.2,123.7-310.1c20.4-129.2,3.3-251.1-128.9-371
				C725.5-236.8,565.1-328.3,266.6-396c-38.6-0.5-77.2-1-115.9-1.2c-16.6-0.1-33.3-0.2-50-0.2c-9.5,0.5-18.9,1-28.6,1.3
				c-41.9,1.4-84.1,0.8-126.4-0.2c-174.3,2-350.4,4.9-522.7-7.6c-46.9,6.1-93.4,13.1-139,21.2l0,0.6c248-14.3,461.8,0.5,631.5,26.5
				c192.7,29.6,333.1,73.2,439.9,118.8c120.4,51.4,204.1,107.9,268.9,167.3C697.6-2.2,748.2,70.6,777,149.5z"/>
			<path class="st9" d="M667.3-57.9C732.5,9,775.7,80.8,798.7,158.1c29.4,100.3,24.9,216.5-40.1,346.7
				c-65.4,130.4-192.7,259.5-194.8,383.6c-1.3,93.7,102.4,175.4,267.2,220.9c33.1,1.1,66.1,1.9,99.2,2.9
				C740.3,1073,615.8,989,615.5,889.2c0.4-118.5,121.1-241.2,195.8-363C884.9,406.4,914.9,301,922,210C932,78,901-45.6,752.7-165.2
				C652.4-246,484.1-334.7,183.1-396.9c-10.8-0.1-21.6-0.3-32.4-0.3c-17.1-0.1-34.3-0.2-51.6-0.2c-9,0.5-17.9,1-27.1,1.3
				c-41.9,1.4-84.1,0.8-126.4-0.2c-106.1,1.2-212.9,2.8-319.1,1c143.8,6.5,270.1,21.9,376.9,41.3C189.2-320.1,322-274.2,421.8-227
				C533.7-174.2,609.6-117.2,667.3-57.9z"/>
			<path class="st12" d="M820.8,166.4c22.2,98.5,13.2,212.7-53.4,341.2C700.2,636.7,573.5,765,571.1,888.4
				c-1.3,94.3,104.2,176.3,271.5,221.2c25.8,0.8,51.6,1.5,77.5,2.2c-186.8-40-308.5-123.8-308.2-222.9
				c0.9-119.2,123-242.4,197.5-364.8c73.1-120.4,102.5-226,108.7-317.2c9-132-21.9-255.3-171.5-374.5
				C645.9-247.6,476.5-336.1,172.7-397c-7.3-0.1-14.7-0.2-22-0.2c-17-0.1-34.1-0.2-51.2-0.2c-9.1,0.5-18.1,1-27.5,1.3
				c-41.9,1.4-84.1,0.8-126.4-0.2c-44.5,0.5-89.1,1.1-133.7,1.5c330.6,31.6,542.8,108.4,676.3,178.1
				C704.7-103.6,788.4,24,820.8,166.4z"/>
			<path class="st6" d="M829.6,171.2c19.7,98.1,8.5,211.5-58.8,339.2c-68,128.3-193.8,256-195.1,378.7
				c-0.7,94.7,106.9,176.6,276.3,220.8c18,0.5,36.1,1,54.1,1.6c-183-40.8-301.9-123.8-302.3-221.7C604.1,770,726.3,646,799,522.3
				c71.8-122.1,96.5-229.8,96.1-323c-1-134.8-45.4-259.7-211-378.3C575.8-256.4,398.7-341.8,93.4-397c-7.1,0.3-14.1,0.7-21.4,0.9
				c-42.1,1.4-84.4,0.8-126.7-0.2c-32.1,0.4-64.2,0.8-96.3,1.1c324.2,35.1,530.5,112.5,660.7,182.8
				C720.7-98.2,800.7,29.4,829.6,171.2z"/>
			<path class="st3" d="M844.8,177.6c15,96.9,0.7,209.1-67.8,335.5C707.9,640.4,583,767.3,581.7,889.4
				c-0.4,95.2,109.2,177.3,281.1,220.8c10.6,0.3,21.3,0.6,31.9,0.9C714.5,1069.5,597.9,986.6,598,889.2
				c0.7-120.5,123.6-245.4,195.1-370.2c70.7-123.4,91.9-232.5,86.8-326.8c-8-136.6-61.5-262.3-239.5-380.2
				C527.2-262.7,345.1-345.1,41-395.4c-31.7,0.4-63.5-0.2-95.3-0.9c-11.1,0.1-22.2,0.3-33.3,0.4C230.2-355.5,428-276.4,552.2-204.7
				C752-89.3,822.8,37.6,844.8,177.6z"/>
			<path class="st6" d="M560.4,91.5c111.4,116.6,147.7,256.3,94.5,402.7c-51.4,140.2-179.2,275.3-174.1,402
				c3.6,82.3,85,156.9,216.6,206.3c11,0.8,22.1,1.6,33.1,2.2c23.2,1.4,46.4,2.5,69.6,3.4c-158.5-47.4-256.5-129.2-254.2-221.9
				c4-126.2,133.8-257.8,194.9-391.3c61.1-134,54.9-254.4,9.5-358c-35.5-80.4-94.4-154-176.8-221c-72.5-59-164.3-114.5-293.8-163.7
				c-114.3-43.5-263.5-84-464.8-108c-149.4-17.7-329.7-25.5-531.3-13l-2.8,116.8c124.2-10.7,245.1-9.7,357.2-1.1
				c193.2,14.9,367.8,52.4,519,105.9C327.5-86.8,467.9-5,560.4,91.5z"/>
			<path class="st12" d="M563.3,84.2c111.6,115.3,151.4,253.9,100.6,400.4c-49.1,141.1-179.3,277.2-178.8,405.6
				c0.9,85,83.6,162.3,219.2,212.7c8.7,0.6,17.5,1.2,26.2,1.7c21.2,1.3,42.5,2.3,63.7,3.2c-158.1-48-254.9-130.8-251.1-224
				c5.9-127.2,136.7-259.4,196.6-393.6c59.8-134.6,51.1-255.3,3-358.9C704.9,50.8,643.9-22.6,559.1-89.4
				c-74.4-58.6-168.5-113.8-301-162.2C141.3-294.3-11.2-334-216.4-355.8c-142.6-15.2-312.4-20.9-500.1-8.7l-2.4,103.2
				c133.5-10.9,261.5-8.7,378.5,1.7c190.9,16.9,360.5,55.2,507.4,108.2C333.5-91.2,471.1-10.8,563.3,84.2z"/>
			<path class="st9" d="M571.2,82c109,114.1,149.4,251,100.1,397c-47.9,141.1-179.2,277.6-182,407c-1.3,87,82.3,166.4,221,217.4
				c6.7,0.5,13.4,0.9,20.2,1.3c18.4,1.1,36.7,2,55.1,2.8c-157.3-48.7-253-132.1-248.4-225.5c6.9-128,138.1-261.1,195.5-396.5
				c57.3-136.2,43.6-258.7-13.2-363.7C674.9,39.5,604.7-34.9,510-101.6C426.8-160,323.1-214.2,180.9-260.1
				c-124.9-40.3-285.8-76.3-496.6-92c-119.3-8.9-255-10.4-401.1-0.7l-2,85c145.7-12,283.7-8.4,407.5,4
				c190.3,19,355.8,58.8,498.2,112.1C348.6-91.2,481.5-11.6,571.2,82z"/>
			<path class="st6" d="M574.5,75c108.8,112.8,152.1,248.4,105.4,394.4c-45.5,141.9-178.8,279.4-186,410.5
				c-4.5,89.8,80.3,172,223.1,224c4.5,0.3,9,0.6,13.5,0.9c16,1,32,1.8,48,2.5c-156.7-49.4-251.2-133.6-245.6-227.4
				c8.4-128.9,140.5-262.8,195.6-399.2C784,343.4,766,219.8,703.6,114C654.2,30.9,578.2-43.9,477.1-110.2
				c-88.8-58-198.5-111.3-347.1-155.3c-130.1-38.5-296.6-71.8-511.2-82.9c-102.4-5.3-215.7-4.7-335.8,3.5l-1.6,67.6
				c156.3-12.3,301.7-7,430,7.3c187.7,20.9,348.3,61.4,486.4,114.2C355.5-95.5,485.3-17.2,574.5,75z"/>
			<path class="st8" d="M577.6,67.2C686.3,178.7,732.4,312.9,688.8,459c-42.8,142.7-177.9,281.5-189.9,414.4
				c-8,92.7,77.9,178.1,225,230.9c2.2,0.1,4.4,0.3,6.6,0.4c13.4,0.8,26.8,1.5,40.1,2.1C614.3,1056.7,521,971.4,527.9,877
				c10.2-130.1,143-265,195.3-402.6c52.5-138.8,29.2-264-41.9-370.8c-56.5-84.5-141.5-160-253.1-225.7
				c-97.7-57.5-217.7-109.4-376.8-150.1c-138.8-35.4-314.5-64.1-534.5-67.7c-74.1-1.1-152.6,1.1-234.1,7.1l-1.1,44.6
				c167.7-12.3,320.4-5.2,453,11.2c184.7,22.8,340.1,63.9,473.9,116.3C362-100.5,489-23.6,577.6,67.2z"/>
			<path class="st12" d="M583.5,70.3C689.6,181.3,734,314.6,690.2,459.8c-43.2,142-177.2,280.1-189.8,412.7
				c-8.4,93.2,77.9,179.1,226.5,232c1.2,0.1,2.4,0.2,3.6,0.2c11.2,0.7,22.4,1.3,33.5,1.8c-155.7-50.9-247.7-137-239.5-231.7
				c11.9-130.9,145.4-266.5,196-404.8c50.9-139.6,24.3-265.3-50.5-372.3C610.4,12.8,521.8-62.5,406.9-127.7
				c-100.5-56.9-223-107.9-384.6-147.1c-140.6-34.1-318-61.1-538.4-61.9c-64.2-0.2-131.7,2.2-201.2,7.4l-1,41.4
				c172.5-13,329.6-5.4,465.2,11.7c186.1,23.5,341.3,65.5,474,118.4C372.8-97.1,497-20.1,583.5,70.3z"/>
			<path class="st10" d="M599.9,67.4C700.6,176.4,744.5,306.8,702.6,451C661,593,525.6,731.9,507.9,866.2
				c-12.1,96.2,75,185.2,228,238.9c6.4,0.4,12.9,0.7,19.3,1.1c-154.9-51.7-245.8-138.5-236.8-233.7
				c13.1-131.8,147.1-268.5,194.6-408.1C761,323,728.2,195.2,643,86.9C574.8,0.4,475.1-75.6,348-139.8
				C237-195.8,103.2-244.4-68.4-279.2c-148.4-30-332.5-50.9-553-43.4c-31.6,1.1-63.7,2.9-96.2,5.4l-0.4,18
				c198.2-15.3,373.6-4.4,519.5,16.9c184.1,26.9,332.4,71.1,457.5,124.5C402.4-96.5,518.3-20.8,599.9,67.4z"/>
			<path class="st6" d="M1639.7,1100.3c-0.2,0.1-0.4,0.2-0.6,0.3c-0.8,0.4-1.6,0.8-2.4,1.2c0.6,0,1.2,0,1.7,0
				c0.5-0.4,0.9-0.8,1.4-1.3C1639.8,1100.5,1639.8,1100.4,1639.7,1100.3z"/>
			<path class="st6" d="M605.5,1093.1c8.4,1,16.8,2.1,25.1,3.1c22.2,2.6,44.4,4.7,66.7,6.4c-131.5-49.5-212.9-124-216.6-206.3
				c-5-126.7,122.7-261.8,174.1-402c53.2-146.4,16.9-286.1-94.5-402.7C467.9-5,327.5-86.8,157-147.1C5.8-200.6-168.8-238.1-362-253
				c-112.1-8.6-233-9.6-357.2,1.1l-1.8,76.7c1.4,7.9,1.3,16-0.6,24.3l-0.1,5.3c52.9-9.3,109.3-15.9,167.8-19
				C-153.6-186.4,345.5-43.4,520,179.7c100.1,128.6,87.6,277,15.5,419.8c-65.9,130.3-151.3,256.8-94,365.3
				C468.1,1014.7,526,1058.3,605.5,1093.1z"/>
			<path class="st8" d="M611.4,1093.8c6.4,0.8,12.8,1.6,19.2,2.3c20.2,2.4,40.4,4.3,60.7,5.9C563.2,1053.3,483,980.9,477,900.7
				c-8.5-125.6,117.8-260.2,170.4-400.2c54.9-146.7,20-287.8-93-405.7C460.2-3,315.5-85.9,140.4-145.9
				C-15.2-199.3-194-235.4-388-248.2c-105.6-6.9-217.5-7-331.3,2.8l-1.7,70.7c1.2,7.3,1.2,14.8-0.4,22.5c50.9-8.2,105-14,161.3-17
				c400.8-21.5,897.8,118.1,1078.2,339.4c104,128.3,96.9,277.1,25.6,420.8c-65.3,131.4-155.1,258.8-101.5,368.7
				C468.1,1012,528.1,1057.8,611.4,1093.8z"/>
			<path class="st11" d="M618.1,1094.6c4.2,0.5,8.3,1,12.5,1.5c18,2.1,36,3.9,54.1,5.4c-124.1-47.6-202.9-117.2-211.5-194.6
				c-13.1-123.7,110.1-257.2,165-396.2c57.4-146.3,27-288.3-84.9-407.4C459.5,4,312.7-80.5,134.2-141
				c-159.8-54-343.6-89.5-539.9-100.5c-101.2-5.6-207.2-4.7-313.8,5l-1.5,62.6c0.6,4.2,1,8.5,0.8,12.8
				c42.3-6.1,86.4-10.7,132.1-13.5c396.9-24.3,899.9,105.7,1095.8,324.9c114.1,128.1,117.5,278.8,48,425
				c-63.7,134.2-161.2,263.5-113.2,376.3C466.6,1007.6,529.3,1056.6,618.1,1094.6z"/>
			<g>
				<path class="st4" d="M622.4,1095.1c2.7,0.3,5.5,0.7,8.2,1c15.8,1.9,31.7,3.5,47.5,4.8c-120.3-46.6-197.6-113.8-208.6-188.8
					c-17.2-122.2,103.3-255,160-393.1c59.5-146.1,32.4-289.2-79.5-409.4C456,8.8,306.5-77,124.1-137.6
					c-163.9-54.4-352.4-88.8-550.2-97.8c-95.9-4.3-194.9-2.6-293.6,6.7l-1.3,54.2c0.5,3.3,0.9,6.6,0.9,10
					c47.8-6.9,97.8-11.7,149.5-14.3C-169.6-199,321-66.6,513,150.6c112.1,127.3,116,276.9,46.9,422.5c-63.6,133.8-162,262.9-116,376
					C467.5,1006.2,531.4,1056.5,622.4,1095.1z"/>
			</g>
			<path class="st12" d="M630,1096.1c0.2,0,0.4,0.1,0.6,0.1c14,1.7,28,3.1,42,4.3c-117.9-46.2-194.3-112.1-206.4-185.8
				c-19.2-122,100.9-255,157.5-393.7c59.8-147.1,31.9-291.8-84.1-413.1C441.8,5.7,286-80.6,98.2-140
				c-168.7-53.3-360.3-85.2-556.6-91.5c-86.3-2.8-174.3-0.5-261.4,7.5l-1.2,49.1c0.1,0.3,0.2,0.6,0.2,0.9
				c50-6.6,102.1-11.1,155.6-13.3C-160.3-203.9,320.2-72.9,515,141.5c114.7,126.9,123.4,276.5,55.4,422.9
				C507.5,699.4,405,829.4,446.9,944C469.1,1003.7,535,1056.2,630,1096.1z"/>
			<path class="st10" d="M637.5,1096.9c9.6,1.1,19.1,2.1,28.7,3c-114.5-45.3-189.4-109.1-203.3-180.7
				C440.2,798.5,557.8,666,615.7,527.8c61.3-147,36.2-292.8-80.1-415.1C437.1,9.3,278.1-78.1,86.6-137.3
				c-172.7-53.3-368.4-83.8-565.4-87.9c-80.4-1.7-161.5,1.2-241.2,8.9l-0.8,33.3c54.4-6.7,110.8-11,168.5-12.7
				c409.1-11.8,876.7,119.3,1071.5,330.8C634.8,261.4,647.1,410.7,580,557.4c-62.3,135.8-168.1,266.3-129.9,382.1
				C471.1,1001.4,538.8,1056,637.5,1096.9z"/>
			<g>
				<path class="st9" d="M643.2,1097.6c5.4,0.6,10.8,1.1,16.2,1.7C548.8,1055,475.6,993.7,459.8,924.6
					c-26.9-119.2,87.4-250.8,146.8-387.9c63.2-146.5,42.4-292.8-72.4-416.1C345.4-81.3-76.5-213.6-493.3-218.1
					c-76.2-0.8-152.5,2.6-227,10.3l-0.4,18.7c65.9-8,134.3-12.5,203.6-13.2c417.2-4.3,864.6,132.5,1049.4,341.5
					c110.5,125.5,120.6,272.9,53.3,418.4c-62.7,135-168.8,264.8-131.9,380.4C474,1000.9,542.6,1056.3,643.2,1097.6z"/>
			</g>
			<path class="st8" d="M501.1,1085.1c-70.6-32-121.5-71.1-144.9-115.1c-53.8-102.8,35.8-221.7,100.9-344.5
				c71.1-134.2,78-273.3-26.3-393.3C250.2,25.1-247-106.1-647.8-86.6c-18,0.9-35.8,2.1-53.3,3.5c-0.2,1.6-0.7,3.3-1.3,4.9
				c20-1.8,40.4-3.2,61-4.2C-241.3-102,257.9,32.3,432.9,241.2c100.3,120.4,88,259,16.2,392.4c-65.7,121.7-150.9,239.8-93.5,341.2
				c24.2,42.2,74,79.8,142.3,110.7C498.9,1085.3,500,1085.1,501.1,1085.1z"/>
			<path class="st3" d="M567.6,1088.7c-97-36.4-167.1-86.7-194.5-145.7c-47.9-105,32.8-226.7,91.4-352.4
				c64.1-137.4,70.7-279.6-22.3-402C280.9-22.5-164.1-155.1-523.3-134c-64.6,3.8-126,11.9-182.3,23.7c0.2,0.8,0.7,1.5,0.8,2.3
				c0.3,1.4,0.6,2.7,1,4.1c57.4-13,120.3-21.9,186.2-25.8C-159-151,287.8-15.2,443.9,197.8c89.5,122.7,78.1,264.5,13.3,401
				C398,723.4,321.3,844.4,372.5,947.9c28.3,56.7,96.4,104.9,189.8,140.3C564,1088.4,565.8,1088.6,567.6,1088.7z"/>
			<path class="st6" d="M431.3,950.2c3.4,5.6,7.3,11.1,11.5,16.6c0.3,1.7,0.7,3.5,1.4,5.3c0.1,0.2,0.1,0.4,0.2,0.6
				c-4.7-5.8-9.1-11.6-13-17.6c-65-101.8-5.2-225.4,36.8-352c45.8-138.8,37.8-281-68-400.6C215.8-5-247.4-125.5-601.4-92
				c-34.9,3.3-68.7,8.1-101.2,14.1c0.7-1.8,1.2-3.5,1.5-5.3c0-0.2,0-0.4,0-0.6c30.1-5.1,61.3-9.2,93.5-12.3
				c354.5-33.4,815.5,83.9,1004.8,289.5c109.3,119.2,122.1,261.6,77,401.2C433,722.4,369.4,846.9,431.3,950.2z"/>
			<g>
				<path class="st4" d="M1212.3,1092.9c-1-0.3-2-0.6-3.1-0.8c-0.1,0-0.3,0-0.4,0c0.4,0.2,0.8,0.5,1.2,0.7
					C1210.8,1092.8,1211.5,1092.9,1212.3,1092.9z"/>
				<path class="st4" d="M1107.5,1082.4c-12.4-1.8-24.7-3.8-36.9-6c-201.8-37-317.6-134.5-288.2-242.6
					c48.2-172.1,205.2-313.5,343.7-438.3c50.8-45.8,98.8-89,135.7-129.1c216.9-235.9,179.4-438.1-110.4-602.5c-2,0-4.1,0.1-6.2,0
					c-2.8-0.1-5.4-0.2-8-0.4c299.2,162.9,334.1,356.4,112.6,601.1c-36,39.6-82.4,82.3-131.5,127.5c-138,126.9-294.3,270.8-340,444.7
					c-27.5,107.6,90.3,204.2,293,240.6c12.1,2.2,24.4,4.1,36.8,5.9C1107.9,1083,1107.7,1082.7,1107.5,1082.4z"/>
			</g>
			<g>
				<path class="st8" d="M1133,454.5c-143,116.1-305,247.6-365.6,410.7c-15.1,41.4-7.2,81.7,20,117.6c-2.3-2.2-5-4.4-8.2-6.4
					c-22.9-33.4-29.1-70.4-16-108.4c58.3-164.9,220-298.8,362.6-416.9c50.8-42.1,98.8-81.8,136.5-118.8
					c231.6-227.9,213.3-413.4-56.5-574.7c-2.2-3.6-5.1-3.9-9.3-7c-0.4-1.4-8.5-7-9.2-8.4c284.4,165.6,319.8,365.6,86.3,592
					C1234.9,371.7,1185.4,411.9,1133,454.5z"/>
			</g>
			<g>
				
					<linearGradient id="SVGID_7_" gradientUnits="userSpaceOnUse" x1="1009.4838" y1="625.6042" x2="1286.7931" y2="625.6042" gradientTransform="matrix(2.7463 0.1666 0.2608 -1.9802 -2116.8899 1373.6836)">
					<stop  offset="0" style="stop-color:#8B002E"/>
					<stop  offset="1" style="stop-color:#E00061"/>
				</linearGradient>
				<path class="st13" d="M1237.7,268c-35.8,41.7-81.4,86.5-129.7,133.9c-131.6,129.3-280.8,275.9-340.2,456
					c-11.9,37-10.3,72.9,3,106c-1.4-1.9-3.2-3.8-5.2-5.6c-10.9-30.6-12.1-63.5-1.7-97.3c57.3-182,206.3-331.2,337.7-462.8
					c46.8-46.9,91-91.1,125.9-132.3c202.4-239.1,206.1-433.5,7-601.1c1.3,0.1,2.5,0.2,3.8,0.2c2.1,0,4.1,0,6.2,0
					C1437.7-165,1435.7,37.2,1237.7,268z"/>
			</g>
			<path class="st14" d="M1231,1099.5c0.2-0.3,0.4-0.6,0.7-1c-7.6-2.4-15.3-4.6-23.1-6.7c6.3,3.9,12.8,7.5,19.4,10.9
				c0.1-0.1,0.3-0.3,0.4-0.4C1229.3,1101.4,1230.1,1100.5,1231,1099.5z"/>
			<path class="st14" d="M1099.4,1069.2c-5-9.1-5.6-19-1.6-28.5c3.5-8.3,11.2-17,20.7-18.5c57.9-9.3,115.1,8.4,169,28
				c9.7,3.5,16.7,8.9,20.7,18.5c1.1,2.6,1.9,5.4,2.3,8.3c7.4-0.2,14.7-0.7,22-1.5c13.1-1.9,26-4.6,39-7.4c-0.4-0.1-0.7-0.1-1.1-0.2
				c-15.7-2.7-24.9-20.7-22.9-35.1c1-7.1,3.9-13.1,8.8-18.4c4.9-5.3,15.3-10.2,22.6-9.4c17.3,1.9,34.7,3,52.1,4.1
				c6.3,0.4,12.7,0.7,19,1.1l31.6-1338.7L-692-379.8l-35.2,1492.1l1209.1,28.5c-6.5-5.9-10.5-14.5-10.9-23.8
				c-0.8-17.3,15.3-32,32-32c8.5,0,17,0.2,25.4,0.7c34.2,1.7,68.2,6.4,102.2,10.5c33.2,4,66.5,6.6,99.8,8.6
				c68.8,4.2,137.8,5.5,206.7,7.6c34.3,1.1,68.5,2.3,102.7,4.2c31,1.7,62,4.8,93.1,6c3.5,0.1,7.1,0.3,10.6,0.4
				C1126.1,1107.8,1110.9,1090,1099.4,1069.2z"/>
		</g>
	</g>
</g>
<g id="Lag_1" class="st15">
	<path class="st16" d="M823.4,325.3c1.6-0.5,3.7-1.2,5.1-0.9c1.8,0.4,4.2,3.9,5.1,6.6c0.4,1.1,0.3,2.5,0.7,3.5
		c1.2,3.4,3.6,4.9,3.5,7.9c1.5,2.1,3.6,2.9,4.8,5.3c4.4,8,1.7,21.8,12.8,23.3c-4.9,1.9-7.9-3.2-9.9-6.4c-0.2,5.4,4.6,8.2,7.3,11
		c1.7,0.2,3.2-0.6,4.4,0.2c-4.5,3.2-8.2-1.2-10.3-3.7c1.8,3.6,1.7,7.1,3.1,10.3c1.8,4.4,8.1,6.1,10.6,10.3c2.6,4.4,2.9,7.9,4.4,13.9
		c0.3,1.1-0.6,0.2-0.7,0.7c2.7,8.3,4.4,17.6,5.9,27c3.8,2.1,9.8,2.1,9.5,8.4c1.1,1.6,2.7,2.7,4,4.2c0.9,6.3,5.6,9.6,8.4,14.9
		c0.7,1.3,1.7,2.6,2.2,3.7c2.8,6.7,1.9,14.1,5.3,21.1c0.2,7-2.8,13.3-2.9,21.1c0,4.5,0.1,8.5,0.2,13.4c0.1,5,0.6,11-0.9,14.7
		c-0.4,1.2-2.4,2.6-2.6,4.2c-0.4,2.1,1.2,3.4,1.3,5.3c0.2,2.6-2.1,6.8-2.2,10.1c-0.1,1.8,0.5,3.8,0.4,5.3c-0.1,1.5-1,3.2-1.3,4.8
		c-1,4.6-1.4,10.7-2.6,15.2c-2.1,7.4-7.3,13-11.2,18.7c-1.5,2.2-3.4,4-5.1,5.7c2.6,9.3-3.8,19.8-0.2,27.9c1.5,0,1.9-2.2,3.5-1.3
		c1.5,1.7,0.9,4.9,0.9,7.7c0,4.2,0.6,8.6,0.2,12.3c-0.5,4.4-4.9,4.8-6.8,7.5c0.4,2.1,0.2,4.3,0.9,6.2c0.6,1.5,2,2.6,2.6,4
		c1.4,3.1,1.7,7.2,2,10.5c0.1,0.9-0.3,1.9,0,2.9c0.3,1,1.4,1.5,2,2.6c0.8,1.7,0.4,5,1.3,7.5c0.6,1.6,2.8,3.4,2.9,4.6
		c0.1,1.1-1,2.1-1.1,3.3c-0.1,1.5,1.2,2.6,1.5,4.2c0.3,1,0,2.2,0.2,3.3c0.3,1.4,0.8,3.2,1.3,4.4c0.6,1.7,2.2,2.8,1.3,5.3
		c1,1.5,3,2,4.6,2.9c1.8,4.2,3.2,8.4,2.6,13.4c-0.2,1.6-0.9,2.3-0.4,4.4c0.4,1.8,1.8,3.3,2.4,5.3c0.4,1.3,0.2,2.9,0.4,4.6
		c0.4,2.8,1.9,5.7,2.2,8.1c0.9,7.2-0.1,14.5,2.2,20c0.5,1.3,1.7,1.9,2.4,2.9c3,3.9,5.9,8,5.1,15.6c-0.2,1.4-1.1,2.4-1.3,4
		c-0.2,1.5,0,3.7,0.7,5.5c0.6,1.5,2.2,2.5,2.9,4c1.2,2.7,1.6,5.9,2.6,9c0.7,2.3,3,3.7,4,5.9c1.2,2.8,1.1,5.6,1.8,8.1
		c0.3,1.3,1.7,2.2,0.9,3.7c2.6,4.6,4.1,9.8,5.9,14.9c0.9,2.5,2.3,4.8,3.3,7.3c1.7,4.5,3.1,9.5,4.4,14.5c1.8,7.1,5,14,7.3,20.9
		c1.5,4.8,2.5,9.7,4.4,14.3c0.9,2.3,1.9,4.6,2.4,6.8c0.9,4.1,0.1,8.9,1.5,13c1,3,4.7,5.7,6.2,8.8c0.6,1.2,0.8,2.8,1.3,4.2
		c1.7,4.7,3.7,9.8,4.8,15.4c1.4,1,2.7,2.1,4,3.3c1.2-0.7,2-2.9,4-3.1c1.7-0.2,5.6,2.1,5.7,2.9c0.3,1.7-3.2,2.8-4.4,3.5
		c0.9,0.7,1.8,1.2,1.8,2.9c3.1,0.2,3.6,3,6.6,3.3c1.3,0.4,1.7,1.6,2.6,2.4c1.5-0.1,2.8,0.6,3.7,1.3c1,0.8,1.1,1.9,2,2.9
		c1.1,1.3,3.2,2.1,4.2,3.7c0.5,2.5-0.6,4.6-1.1,6.6c-0.3,1.2-0.1,2.6-0.7,3.7c-1.5,2.9-8.4,6.5-13.4,6.6c-9.7,0.3-21.4-2.2-27.1-6.8
		c-3.1-2.5-4.8-6-8.4-7c-5.1,1.3-13.1-0.5-18.9-1.3c-3.7-0.6-8.4-0.3-10.1-2c-1.7-1.7-1.5-4.4-2.4-6.6c-2.1,0.4-3.3-1.6-5.5-1.8
		c-1.2-3.2-3.1-6.3-3.7-9.7c-0.1-0.7,0.2-1.5,0-2.2c-0.3-0.9-1.1-1.8-1.5-2.6c-1.5-2.8-1.6-5.7-2.4-9.5c-0.3-1.6-1.1-3.5-1.8-5.3
		c-1.2-3.5-2.4-6.7-3.5-10.1c-1.3-4.1-2.1-8.6-3.7-12.3c-0.8-1.8-2.1-3.3-2.9-5.1c-2.4-5.1-4.8-10.9-6.6-16.5
		c-1.8-5.7-3.9-11.1-5.9-17.1c-0.6-1.9-1.8-3.7-2.2-5.5c-0.2-1,0-2.3-0.2-3.5c-0.3-2.2-1.2-4.2-1.3-6.2c-0.1-1.2,0.3-2.3,0-3.5
		c-0.6-2.4-2.5-4.9-3.5-7.5c-2.1-5.2-3.9-10.4-5.5-16.3c-0.8-2.9-0.9-6.2-2-8.8c-0.8-1.9-2.8-3.2-3.7-5.1c-1.1-2.2-1.2-4.7-2-7
		c-0.6-1.8-1.7-3.6-2.4-5.5c-0.7-2-1-4.1-1.8-5.9c-0.5-1.3-1.7-2.4-2.4-3.7c-0.7-1.3-1.1-2.8-1.8-4.2c-1.2-2.7-3-5-4.4-7.5
		c-2.4-4.5-3.4-10.1-5.3-15.4c-1.4-3.9-3.7-7.4-4.8-11c-0.5-1.6-0.3-3.6-0.9-5.3c-0.3-1-1.1-1.7-1.5-2.6c-1-2.2-1.5-4.4-2.6-6.4
		c-3-5.5-7.1-11.1-9.9-16.9c-2.6-5.4-4.2-11-6.4-16.3c-1.2-2.8-2-5.7-2.9-8.6c-0.8-2.6-1.1-5.8-3.3-7.9c0.7,11.7-0.8,23.2-1.8,35
		c-0.2,2.6,0.2,5.3,0,7.9c-0.4,5.2-1.8,9.7-1.3,14.7c0.3,3.2,0.8,8.9,0.4,13c-0.4,3.9-1,9.1-1.5,13.9c-0.4,3-1.4,6.1-1.5,8.8
		c-0.1,2.2,0.3,5,0.4,7.9c0.1,2.6,1.1,5,1.1,7.3c0,4.1-3.2,8.6-0.9,12.5c-0.7,2.1-1.1,5,0.4,6.4c0.4,3.3,0.2,6.5,0.9,9.7
		c0.3,1.2,1.2,2.3,1.3,3.7c0.5,5,0.7,10.1,2.2,14.9c0.2,0.8,0.8,1.5,1.1,2.2c1.6,4.5,1.5,9.1,2.4,14.1c0.3,1.8,1.3,3.5,1.5,5.3
		c0.4,3.2-0.3,6.5,0.4,9.2c0.7,2.9,2.1,5.6,2.9,8.6c0.7,3,1.6,5.9,2.4,8.8c1.3,4.5,2.7,8.3,4.6,12.5c0.6,1.2,1.5,2.6,1.8,3.7
		c0.7,3,0.9,6.7,1.1,9.7c0.3,3.8,0,8.1-0.2,11.4c-0.2,3.9-2.9,8.7-5.1,12.5c-2.4,4.1-5.2,7-9,9.7c-0.1,4-0.4,7.8-2.6,9.7
		c1,2.4-0.7,4.8-0.9,6.6c-0.3,2.7,0.5,5.4-0.4,7.7c-0.6,1.6-2.8,4.3-4,5.5c-4,4.1-11.1,7.7-17.6,6.8c-1.1-0.1-2.7-1.1-4.4-1.8
		c-2.1-0.8-4.1-0.9-5.7-1.8c-1.4-0.7-4.6-3.6-5.9-5.1c-1.3-1.4-2.8-3.4-3.1-5.5c-0.1-1.1,0.3-2.3,0.2-3.7c-0.1-1.5-1-3.3-0.9-4.6
		c0.2-1.7,1.7-2.7,2.4-4.2c1.2-2.5,2-4.9,3.5-6.8c-1.8-6.8-6.5-11.3-8.1-19.1c-0.7-3.1-1.2-5.3,0-8.1c0.8-1.8,2.6-4.4,4-6.2
		c1.7-2.1,4-3.8,4.6-5.5c0.7-1.9,0.4-5.6,0.2-7.9c-0.5-6.5-3.2-12.7-4.8-19.1c-0.8-3.1-1.7-6.2-2.4-9.5c-0.7-3.1-2-6.2-2.6-9.2
		c-0.9-4.1-0.8-8.3-1.8-12.3c-2.7-11.1-4.6-22.8-7.9-33.9c0.9-3.4-1.7-6.6-2-9.9c-0.2-1.8,0.6-3.7,0.7-5.5c0-2.2,0-4.6-0.2-6.8
		c-0.3-2.4-1.2-4.5-1.3-6.8c-0.1-1.9,0.5-3.7,0.4-5.7c-0.1-1.6-1.1-3-1.3-4.6c-0.4-2.6,0.2-4.2-0.9-6.2c-0.9-1.6-2.8-2.5-4-4.8
		c-1.2-2.4-0.8-4.5-1.1-7.5c-0.4-3.2-1.9-6.3-2.2-9.7c-0.5-6.5-0.9-13.3-1.8-20.2c-0.8-6.4-2.3-12.9-2.9-18.9
		c-0.3-3.5,0.3-7.2-0.4-10.3c-0.3-1.3-1.5-2.4-1.8-3.7c-0.6-3.1,0.3-6-0.2-9.4c-0.4-2.7-1.9-5.3-2.6-7.9c-0.8-2.8-1.5-5.7-1.8-8.6
		c-0.2-2.4,0.5-4.8,0.4-7.3c0-1.9-0.7-3.8-0.9-5.7c-0.4-4.6,0.8-9,0.7-13.8c-2.2-0.5-5.9-1.1-6.6-3.5c-0.5-1.8,0.5-5.2,0.9-7.7
		c0.4-2.4,0.8-4.8,1.1-7.3c0.7-5.6,0.2-12.5,1.8-15.8c0.9-2,3.5-3.6,4.8-4.6c0.8-2.8,1.2-5.2,2.4-7.7c0.6-1.3,1.9-2.3,2.2-3.5
		c0.4-1.4-0.1-3.3,0-4.8c0.1-2.5,0.7-5.3,0.9-8.1c0.2-3-0.3-6.2,0-8.8c0.2-1.4,1.4-2.9,1.3-4.2c-0.1-1.6-2.8-2.9-3.7-4.8
		c-0.6-1.2-1-3.2-1.5-4.8c-0.5-1.5-1.2-3.1-1.5-4.6c-0.3-1.3-0.1-2.8-0.4-4.2c-0.3-1.2-1.3-2.2-1.5-3.3c-0.7-2.5-0.4-5.2-0.9-7.7
		c-0.2-1.3-1.1-2.2-1.5-3.5c-0.6-2-0.4-4.2-0.7-6.4c-0.3-1.9-0.8-4.2-1.3-6.2c-1.3-5.1-2.8-10.4-4-15.6c-0.4-1.9-1.1-3.2-1.5-4.8
		c-0.4-1.4,0-3.1-0.4-4.4c-0.3-1-1.7-1.7-2-2.6c-0.8-3.1,2-9.3,0.2-12.8c-0.2-1.1,1.3-0.6,1.5-1.3c-0.1-6.6,3.5-11.7,3.5-17.8
		c0-3.5,0.3-6.2,0.9-9.9c0.4-2.4,0.4-5.1,1.1-6.8c0.5-1.3,2-2.2,2.6-3.5c0.8-1.6,0.6-3.3,2.2-4c-2.4-3.3-0.5-4.7,2.4-6.6
		c3.7-2.4,8.4-6.2,11.7-8.1c-0.5-3.8,0.1-7.2-0.2-10.8c-0.4-5-1.9-10.1-1.1-14.9c0.5-2.8,2.5-5.6,3.7-8.1c1.4-2.7,2.5-5.4,4-7.7
		c-2.9,1.6-5.5,4.4-8.4,6.8c-1.5,1.2-3.1,1.9-4.8,2.9c-1.5,0.9-3.1,3-5.3,2c5.6-1.9,9.6-6,14.1-9.7c2.4-1.9,5.1-3.7,6.6-5.3
		c1.6-1.7,3.1-4.2,5.1-6.4c3.5-3.8,6.6-7.2,7.3-13.6c-3.4,3.4-6.8,10.6-15.4,8.1c2.1-1,4.6-0.5,6.4-1.3c3.6-1.6,5.4-5.4,7.7-8.1
		c-2.4,1.3-6.7,2.1-10.1,1.1c1.8-1.1,4.2-0.6,6.2-1.1c3.3-0.9,6.3-2.2,6.8-5.7c-0.6,0.1-2.8,1.6-4.4,0.7c1.6-0.7,3.4-1.3,4.6-2.4
		c2.5-9.8,7.6-19.3,12.1-27.9c0.9-1.7,2.2-3,3.1-4.6c1.4-2.7,2.8-6.2,5.3-8.1c3.4-2.7,9.1-4,14.3-5.5c3.1-0.9,7.6,0.5,11.2,0.7
		c3,0.1,6.4-1,9.5-0.9C818,321.3,821.1,322.7,823.4,325.3z M843.4,364.4c-0.1-1,0.3-2.5-0.2-3.1C843,362.1,842.7,364,843.4,364.4z
		 M847.2,379.1c-1.5-3.8-2.5-8.2-4.2-11.9C844.1,371.3,844.9,377,847.2,379.1z M761.9,380.4c1.4-0.3,3.4-3.5,1.5-5.3
		C762.7,376.7,761.9,378.2,761.9,380.4z M839.7,384.6c-0.4-1-0.3-2.5-1.3-2.9C838.3,383.2,839,383.9,839.7,384.6z M758.6,384.6
		c0.2-0.5,1.3-1.1,0.7-1.8C759.2,383.5,758.1,384.2,758.6,384.6z M765.6,389.7c0.3-1.2,1.1-3,0.4-4.4
		C765.8,386.5,765.1,388.4,765.6,389.7z M856.4,418c-0.3-6.1-3.7-10.5-5.5-14.7c-2.5-5.9-3.8-12-7.5-17.1
		C847.9,396.6,850.7,408.8,856.4,418z M839.1,392.1c-0.8-1.8-1.2-3.9-2.4-5.3C837,389,837.8,390.8,839.1,392.1z M862.8,403.3
		c-1.3-7.8-5.5-12.8-11.2-16.3C851.9,395.9,859.3,397.6,862.8,403.3z M751.1,391c0.8-0.8,2.8-1.6,2.2-3.1
		C752.8,389,751.1,390.1,751.1,391z M761.2,395.8c0.1-1.6,1.2-3.2,0.7-4.6C761.1,392.1,760.6,394.3,761.2,395.8z M740.5,405.5
		c-1.7,3.2-4.4,7.3-4.8,10.3c-0.7,5,0,10,0.9,14.9c0.6-14.1,5.4-22.4,11.4-30.6c2-2.7,4.3-5.1,4.6-8.6c0-0.1,0-0.3-0.2-0.2
		C746.9,394.6,743.7,399.5,740.5,405.5z M843.2,396.5c-0.2-1.7-0.9-3-1.8-4C842.1,393.8,842,395.9,843.2,396.5z M769.6,402
		c0.4-1.2,1.7-2.7,0.9-4.4C769.5,398.3,768.9,400.5,769.6,402z M761.4,404c1.4-1.3,3.7-3.6,2.4-6.2
		C762.7,399.5,761.7,401.4,761.4,404z M833.6,399.8c-0.1-0.8-0.3-1.5-0.7-2C832.8,398.7,832.9,399.6,833.6,399.8z M859.3,407.5
		c1.6,3.1,3.9,6.6,4,9.2c0.1,1.7-0.9,3.5-0.9,5.3c0,3.5,1,6.6,1.3,10.1c1.5,0.9,2.9,1.8,5.1,2c-3-13.5-3.7-30.4-13.9-36.1
		C856.2,400.4,857.5,404,859.3,407.5z M758.6,402c0.5-0.6,0.7-2.7,0.2-3.5C758.9,399.7,758.1,401.1,758.6,402z M772.4,401.6
		c1-0.2,2-2.3,0.7-2.9C772.9,399.7,772.2,400.1,772.4,401.6z M836.6,403.3c-0.2-1.2-0.3-2.4-0.9-3.1
		C836.1,401.2,835.9,402.7,836.6,403.3z M742.7,415.2c1.9-5.4,4.7-9.8,7.7-14.1c0-0.3,0-0.6-0.2-0.7
		C747.4,404.9,743.3,409.3,742.7,415.2z M754.6,407.5c1.3-1.1,2.6-4.2,1.3-6.4C755.5,403.1,754.1,405.3,754.6,407.5z M773.5,405.9
		c0.6-1.2,2.4-3,0.9-4.4C773.7,402.7,772.1,404.5,773.5,405.9z M834.2,413c1.6-2.7,1.2-9.4-1.3-10.8
		C833.2,406,833.7,409.5,834.2,413z M826.3,407c0.5-1.1,1.5-1.9,1.3-3.7c-0.5,0.1-0.8,0-1.1-0.2C825.8,404.1,825.7,405.9,826.3,407z
		 M770.4,404.8c0.1-0.4,1.1-1.1,0.4-1.5C770.8,403.8,770.1,404.7,770.4,404.8z M767.4,406.4c0.3-0.4,0.4-2.2,0-2.6
		C767.1,404.2,766.9,406,767.4,406.4z M758.6,408.4c0.6-0.6,1-2.2,0.2-2.9C758.4,406,758.1,407.7,758.6,408.4z M770.4,410.3
		c1-1.1,2.1-3,0.9-4.6C770.3,406.8,769.2,408.6,770.4,410.3z M773.7,412.1c1.2-0.9,2.3-4.1,1.1-5.9
		C773.8,407.3,773,409.9,773.7,412.1z M849.8,413.2c-0.3-2.8-1.3-4.9-2.9-6.4C847.1,409.8,848.8,411.1,849.8,413.2z M743.6,431.7
		c2-8,5.6-15.5,6.6-23.7C746.8,414.5,744.3,423.1,743.6,431.7z M833.6,419.4c0.2-4.5-1-7.7-1.8-11.2
		C831.5,411.9,830.7,418,833.6,419.4z M861.3,418.5c0.9-4-2.3-7.3-3.7-10.3C858.4,412,860.1,414.9,861.3,418.5z M823,408.4
		c-1.3,0-1.6,4.1-0.7,5.1C823.4,412.7,824.9,408.4,823,408.4z M761.9,412.1c0.1-1.2,1.4-2.4,0.9-3.5
		C762.4,409.8,760.9,411,761.9,412.1z M764.3,415c0.4-1.8,1.7-4,0.7-5.9C764.6,410.7,764,413.3,764.3,415z M836.4,421.1
		c0.8,0.3,1.5,0.9,2.4,1.1c-0.3-4.6-0.5-9.3-1.5-13.2C837,413.1,836.7,417,836.4,421.1z M841.9,423.5c0.5,0.4,1.2,0.7,2,0.9
		c0.2-1.9-0.6-4-0.9-6.4c-0.4-3.7,0.4-7.9-2.2-8.6C841,414.3,842,418.4,841.9,423.5z M755.3,412.1c0.3-0.5,1.4-1.2,0.7-2
		C756,411,754.7,411.5,755.3,412.1z M771.3,414.5c0.8-0.4,0.9-2.8,0.4-3.7C770.7,411.6,770.4,413.3,771.3,414.5z M768,413.9
		c0.7-0.5,1-2.2,0.2-2.9C767.9,411.8,767.2,413.1,768,413.9z M818.6,415c-0.1-0.7,0.2-3-0.2-2.6C818.5,413,818.2,415.3,818.6,415z
		 M773.5,416.9c0.6,0.1,0.7-0.5,1.3-0.4c-0.1-1,0.3-2.6-0.2-3.3C773.7,413.9,773.3,415.1,773.5,416.9z M822.8,415.4
		c0.6,0.2,0.3,1.3,1.1,1.3c0.3-0.7,0.9-2.6,0-3.1C823.7,414.4,823,414.7,822.8,415.4z M827.8,418.3c0.3-1,0-3.2-0.7-4
		C827.5,415.6,826.5,418,827.8,418.3z M768.2,416.9c1,0.6,1.9-1.6,0.9-2.4C768.7,415.2,768.1,415.7,768.2,416.9z M759.4,418.3
		c0-0.9,1.4-2.6,0.2-3.3C759.6,416,758.6,417.8,759.4,418.3z M850.7,420.9c-0.4-2.1-1-4.1-2-5.7
		C848.8,417.7,849.4,419.7,850.7,420.9z M752.6,426.4c1.7-2.8,3.5-6.6,3.3-10.6C754.2,418.6,752.8,422.8,752.6,426.4z M764.5,421.6
		c0-1.5,2.1-3.3,1.1-4.4C765.5,418.8,764.1,420.2,764.5,421.6z M845.9,425.1c-0.2-2.5-0.3-5.2-0.9-7.3
		C845.1,420.4,845.2,423,845.9,425.1z M750.2,424.9c0.4-2.3,2.2-4.4,2-6.6C751.3,420,749,422.4,750.2,424.9z M739,424
		c0.2-1.8,1.8-3.3,1.1-5.3C739.6,420.2,738.4,422.1,739,424z M759,426.2c2.2-0.4,2.6-4.6,1.8-6.6C759.9,421.5,758.8,423.2,759,426.2
		z M847.6,425.7c1.1-1.5,0-4.5-0.4-5.9C847.1,422,847.7,423.5,847.6,425.7z M852,427.5c-0.2-1.6-0.6-2.9-1.5-3.7
		C850.7,425.3,850.4,427.3,852,427.5z M858.4,428.8c0.3-0.2-0.2-3.1-0.9-3.7C857.8,426.3,858.1,427.6,858.4,428.8z M746.5,433.9
		c1.3-1.6,3-5,1.8-7.7C747.4,428.4,745.5,430.6,746.5,433.9z M750.2,432.8c2.1-0.7,4.1-2.7,3.5-5.3
		C752.9,429.5,751.1,430.7,750.2,432.8z M738.6,433.9c0.2-2.1,1.4-4.3,1.1-6.2C739.4,429.7,738.2,432,738.6,433.9z M739,440
		c0.5-0.5,1.2-0.7,2-0.9c-0.2-2.9-0.1-5.9-0.4-8.6C740.4,433.9,737.6,436.7,739,440z M744.3,437c0.3-0.2,0.8-1.4,0.2-1.8
		C744.5,435.8,743.8,436.7,744.3,437z"/>
</g>
</svg>
