<?xml version="1.0" encoding="utf-8"?>
<!-- Generator: Adobe Illustrator 25.0.0, SVG Export Plug-In . SVG Version: 6.00 Build 0)  -->
<svg version="1.1" id="Lag_1" xmlns="http://www.w3.org/2000/svg" xmlns:xlink="http://www.w3.org/1999/xlink" x="0px" y="0px"
	 viewBox="0 0 530 1080" style="enable-background:new 0 0 530 1080;" xml:space="preserve">
<style type="text/css">
	.st0{fill-rule:evenodd;clip-rule:evenodd;}
</style>
<path class="st0" d="M253,131.8c2.1-0.7,5-1.6,6.9-1.2c2.4,0.5,5.7,5.4,6.9,9c0.5,1.5,0.4,3.4,0.9,4.8c1.7,4.6,4.9,6.7,4.8,10.8
	c2,2.9,4.8,4,6.6,7.2c6,11,2.4,29.7,17.4,31.8c-6.6,2.6-10.8-4.4-13.5-8.7c-0.3,7.3,6.3,11.1,9.9,15c2.4,0.3,4.4-0.9,6,0.3
	c-6.1,4.3-11.2-1.7-14.1-5.1c2.4,4.8,2.3,9.7,4.2,14.1c2.5,5.9,11,8.4,14.4,14.1c3.6,6,4,10.8,6,18.9c0.4,1.5-0.9,0.3-0.9,0.9
	c3.7,11.3,6,23.9,8.1,36.9c5.2,2.9,13.3,2.9,12.9,11.4c1.6,2.1,3.7,3.7,5.4,5.7c1.2,8.6,7.6,13.1,11.4,20.4c1,1.8,2.3,3.5,3,5.1
	c3.8,9.2,2.6,19.3,7.2,28.8c0.3,9.5-3.9,18.1-3.9,28.8c0,6.1,0.1,11.6,0.3,18.3c0.2,6.8,0.8,14.9-1.2,20.1c-0.6,1.6-3.2,3.6-3.6,5.7
	c-0.5,2.9,1.6,4.7,1.8,7.2c0.3,3.6-2.8,9.3-3,13.8c-0.1,2.5,0.7,5.1,0.6,7.2c-0.2,2.1-1.3,4.3-1.8,6.6c-1.4,6.3-1.9,14.6-3.6,20.7
	c-2.8,10.1-10,17.7-15.3,25.5c-2,2.9-4.6,5.4-6.9,7.8c3.6,12.7-5.1,26.9-0.3,38.1c2,0,2.6-3,4.8-1.8c2,2.3,1.2,6.6,1.2,10.5
	c0,5.7,0.9,11.7,0.3,16.8c-0.7,6-6.6,6.5-9.3,10.2c0.5,2.9,0.2,5.9,1.2,8.4c0.8,2.1,2.8,3.5,3.6,5.4c1.9,4.2,2.4,9.8,2.7,14.4
	c0.1,1.3-0.4,2.5,0,3.9c0.4,1.4,2,2,2.7,3.6c1,2.3,0.6,6.8,1.8,10.2c0.8,2.2,3.8,4.7,3.9,6.3c0.1,1.5-1.4,2.9-1.5,4.5
	c-0.2,2.1,1.6,3.5,2.1,5.7c0.4,1.4,0,3,0.3,4.5c0.4,1.9,1.2,4.3,1.8,6c0.9,2.3,3,3.8,1.8,7.2c1.3,2.1,4.1,2.7,6.3,3.9
	c2.5,5.7,4.4,11.4,3.6,18.3c-0.3,2.2-1.2,3.2-0.6,6c0.5,2.5,2.5,4.5,3.3,7.2c0.6,1.8,0.3,4,0.6,6.3c0.5,3.8,2.6,7.7,3,11.1
	c1.3,9.8-0.1,19.8,3,27.3c0.7,1.7,2.3,2.6,3.3,3.9c4.1,5.3,8,10.9,6.9,21.3c-0.2,1.9-1.5,3.3-1.8,5.4c-0.3,2,0,5.1,0.9,7.5
	c0.8,2.1,3,3.4,3.9,5.4c1.7,3.7,2.2,8,3.6,12.3c1,3.1,4.1,5.1,5.4,8.1c1.6,3.8,1.5,7.6,2.4,11.1c0.4,1.7,2.3,3.1,1.2,5.1
	c3.5,6.3,5.5,13.4,8.1,20.4c1.2,3.4,3.2,6.5,4.5,9.9c2.4,6.1,4.3,12.9,6,19.8c2.4,9.7,6.9,19.1,9.9,28.5c2.1,6.6,3.5,13.2,6,19.5
	c1.3,3.1,2.6,6.3,3.3,9.3c1.3,5.6,0.2,12.1,2.1,17.7c1.4,4,6.4,7.7,8.4,12c0.8,1.6,1.1,3.8,1.8,5.7c2.3,6.4,5.1,13.3,6.6,21
	c1.9,1.4,3.7,2.9,5.4,4.5c1.7-1,2.7-3.9,5.4-4.2c2.4-0.2,7.6,2.8,7.8,3.9c0.4,2.4-4.4,3.8-6,4.8c1.2,0.9,2.5,1.7,2.4,3.9
	c4.3,0.2,4.9,4.1,9,4.5c1.7,0.6,2.3,2.2,3.6,3.3c2.1-0.1,3.8,0.8,5.1,1.8c1.4,1.1,1.6,2.6,2.7,3.9c1.5,1.7,4.3,2.9,5.7,5.1
	c0.7,3.4-0.8,6.3-1.5,9c-0.4,1.7-0.1,3.6-0.9,5.1c-2,3.9-11.4,8.8-18.3,9c-13.3,0.3-29.2-2.9-36.9-9.3c-4.2-3.5-6.6-8.2-11.4-9.6
	c-6.9,1.7-17.9-0.6-25.8-1.8c-5-0.8-11.4-0.4-13.8-2.7c-2.4-2.3-2.1-5.9-3.3-9c-2.8,0.5-4.4-2.2-7.5-2.4c-1.6-4.4-4.2-8.6-5.1-13.2
	c-0.2-0.9,0.3-2.1,0-3c-0.4-1.3-1.5-2.4-2.1-3.6c-2.1-3.9-2.2-7.8-3.3-12.9c-0.5-2.2-1.6-4.8-2.4-7.2c-1.7-4.8-3.3-9.2-4.8-13.8
	c-1.8-5.6-2.9-11.7-5.1-16.8c-1-2.4-2.8-4.5-3.9-6.9c-3.2-7-6.6-14.8-9-22.5c-2.4-7.7-5.4-15.1-8.1-23.4c-0.8-2.6-2.4-5-3-7.5
	c-0.3-1.4,0-3.2-0.3-4.8c-0.4-2.9-1.7-5.7-1.8-8.4c-0.1-1.7,0.4-3.1,0-4.8c-0.8-3.3-3.4-6.7-4.8-10.2c-2.9-7.1-5.4-14.2-7.5-22.2
	c-1-3.9-1.2-8.5-2.7-12c-1.1-2.6-3.8-4.4-5.1-6.9c-1.5-2.9-1.6-6.4-2.7-9.6c-0.9-2.5-2.3-4.9-3.3-7.5c-1-2.7-1.4-5.6-2.4-8.1
	c-0.7-1.8-2.4-3.3-3.3-5.1c-0.9-1.8-1.6-3.8-2.4-5.7c-1.7-3.7-4.2-6.7-6-10.2c-3.3-6.1-4.6-13.8-7.2-21c-1.9-5.3-5.1-10-6.6-15
	c-0.7-2.2-0.4-4.9-1.2-7.2c-0.4-1.4-1.5-2.3-2.1-3.6c-1.3-3-2.1-5.9-3.6-8.7c-4-7.5-9.7-15.2-13.5-23.1c-3.5-7.3-5.7-15-8.7-22.2
	c-1.6-3.9-2.7-7.7-3.9-11.7c-1.1-3.6-1.5-8-4.5-10.8c1,15.9-1.1,31.6-2.4,47.6c-0.3,3.5,0.3,7.2,0,10.8c-0.5,7.1-2.4,13.2-1.8,20.1
	c0.4,4.4,1.1,12.1,0.6,17.7c-0.5,5.3-1.3,12.4-2.1,18.9c-0.5,4.1-1.9,8.3-2.1,12c-0.1,3,0.4,6.8,0.6,10.8c0.2,3.5,1.5,6.8,1.5,9.9
	c-0.1,5.5-4.4,11.7-1.2,17.1c-0.9,2.8-1.4,6.8,0.6,8.7c0.5,4.5,0.2,8.8,1.2,13.2c0.4,1.7,1.6,3.2,1.8,5.1c0.7,6.9,0.9,13.8,3,20.4
	c0.3,1,1.1,2,1.5,3c2.2,6.2,2,12.4,3.3,19.2c0.5,2.5,1.8,4.7,2.1,7.2c0.6,4.3-0.4,8.9,0.6,12.6c1,3.9,2.9,7.7,3.9,11.7
	c1,4.1,2.2,8,3.3,12c1.7,6.1,3.6,11.3,6.3,17.1c0.8,1.7,2,3.5,2.4,5.1c1,4.1,1.2,9.1,1.5,13.2c0.4,5.2,0,11-0.3,15.6
	c-0.3,5.4-3.9,11.9-6.9,17.1c-3.2,5.6-7.1,9.5-12.3,13.2c-0.1,5.5-0.5,10.7-3.6,13.2c1.4,3.3-1,6.5-1.2,9c-0.4,3.6,0.7,7.4-0.6,10.5
	c-0.9,2.1-3.8,5.9-5.4,7.5c-5.4,5.6-15.1,10.5-24,9.3c-1.5-0.2-3.6-1.5-6-2.4c-2.9-1.1-5.6-1.3-7.8-2.4c-1.9-1-6.3-5-8.1-6.9
	c-1.7-1.9-3.8-4.7-4.2-7.5c-0.2-1.4,0.4-3.2,0.3-5.1c-0.1-2.1-1.4-4.4-1.2-6.3c0.2-2.3,2.3-3.7,3.3-5.7c1.7-3.4,2.7-6.6,4.8-9.3
	c-2.4-9.2-8.8-15.4-11.1-26.1c-0.9-4.2-1.7-7.2,0-11.1c1-2.5,3.5-6,5.4-8.4c2.3-2.9,5.5-5.1,6.3-7.5c0.9-2.7,0.5-7.6,0.3-10.8
	c-0.7-8.8-4.3-17.2-6.6-26.1c-1.1-4.2-2.3-8.4-3.3-12.9c-0.9-4.2-2.7-8.4-3.6-12.6c-1.2-5.5-1-11.3-2.4-16.8
	c-3.7-15.1-6.2-31.1-10.8-46.2c1.2-4.7-2.3-9-2.7-13.5c-0.2-2.4,0.8-5.1,0.9-7.5c0.1-3,0-6.3-0.3-9.3c-0.4-3.2-1.7-6.2-1.8-9.3
	c-0.1-2.5,0.7-5.1,0.6-7.8c-0.1-2.2-1.5-4.1-1.8-6.3c-0.5-3.6,0.2-5.7-1.2-8.4c-1.2-2.2-3.8-3.4-5.4-6.6c-1.6-3.2-1-6.2-1.5-10.2
	c-0.5-4.3-2.6-8.6-3-13.2c-0.7-8.9-1.3-18.2-2.4-27.6c-1-8.8-3.1-17.5-3.9-25.8c-0.5-4.8,0.4-9.8-0.6-14.1c-0.4-1.8-2-3.3-2.4-5.1
	c-0.8-4.2,0.4-8.2-0.3-12.9c-0.5-3.6-2.6-7.2-3.6-10.8c-1-3.8-2.1-7.8-2.4-11.7c-0.3-3.3,0.7-6.5,0.6-9.9c0-2.6-1-5.2-1.2-7.8
	c-0.6-6.3,1.1-12.2,0.9-18.9c-3-0.7-8.1-1.5-9-4.8c-0.7-2.4,0.7-7.1,1.2-10.5c0.5-3.3,1.1-6.5,1.5-9.9c0.9-7.6,0.3-17,2.4-21.6
	c1.3-2.7,4.8-4.9,6.6-6.3c1.1-3.8,1.7-7.1,3.3-10.5c0.8-1.8,2.6-3.1,3-4.8c0.5-1.9-0.1-4.5,0-6.6c0.2-3.4,0.9-7.2,1.2-11.1
	c0.3-4-0.5-8.4,0-12c0.3-1.9,1.9-4,1.8-5.7c-0.2-2.1-3.8-3.9-5.1-6.6c-0.8-1.6-1.4-4.3-2.1-6.6c-0.6-2.1-1.7-4.3-2.1-6.3
	c-0.4-1.8-0.2-3.8-0.6-5.7c-0.4-1.7-1.7-3-2.1-4.5c-0.9-3.4-0.6-7-1.2-10.5c-0.3-1.7-1.5-3.1-2.1-4.8c-0.9-2.7-0.5-5.7-0.9-8.7
	c-0.4-2.6-1.1-5.7-1.8-8.4c-1.8-7-3.9-14.1-5.4-21.3c-0.5-2.5-1.5-4.4-2.1-6.6c-0.6-1.9,0-4.2-0.6-6c-0.5-1.4-2.4-2.3-2.7-3.6
	c-1.1-4.2,2.7-12.7,0.3-17.4c-0.2-1.5,1.8-0.8,2.1-1.8c-0.2-9,4.7-15.9,4.8-24.3c0.1-4.7,0.4-8.4,1.2-13.5c0.5-3.2,0.6-6.9,1.5-9.3
	c0.7-1.8,2.7-3,3.6-4.8c1.1-2.2,0.8-4.5,3-5.4c-3.3-4.6-0.7-6.4,3.3-9c5-3.3,11.5-8.4,15.9-11.1c-0.6-5.2,0.1-9.8-0.3-14.7
	c-0.5-6.8-2.6-13.7-1.5-20.4c0.6-3.8,3.3-7.7,5.1-11.1c1.9-3.7,3.4-7.4,5.4-10.5c-4,2.2-7.5,6-11.4,9.3c-2,1.7-4.2,2.5-6.6,3.9
	c-2.1,1.2-4.2,4-7.2,2.7c7.6-2.6,13.1-8.2,19.2-13.2c3.2-2.6,6.9-5,9-7.2c2.2-2.3,4.2-5.8,6.9-8.7c4.8-5.2,9.1-9.8,9.9-18.6
	c-4.6,4.6-9.3,14.5-21,11.1c2.9-1.3,6.3-0.7,8.7-1.8c4.9-2.1,7.3-7.3,10.5-11.1c-3.3,1.8-9.1,2.9-13.8,1.5c2.4-1.5,5.7-0.8,8.4-1.5
	c4.5-1.2,8.6-3,9.3-7.8c-0.8,0.1-3.8,2.2-6,0.9c2.2-1,4.7-1.7,6.3-3.3c3.5-13.3,10.4-26.3,16.5-38.1c1.2-2.3,3.1-4.1,4.2-6.3
	c1.9-3.6,3.9-8.4,7.2-11.1c4.6-3.7,12.4-5.5,19.5-7.5c4.2-1.2,10.3,0.7,15.3,0.9c4.1,0.2,8.7-1.4,12.9-1.2
	C245.5,126.4,249.8,128.3,253,131.8z M280.3,185.1c-0.2-1.3,0.4-3.4-0.3-4.2C279.6,182,279.3,184.6,280.3,185.1z M285.3,205.2
	c-2.1-5.2-3.4-11.2-5.7-16.2C281.2,194.6,282.2,202.3,285.3,205.2z M169.1,207c2-0.3,4.6-4.7,2.1-7.2
	C170.2,201.9,169.1,203.9,169.1,207z M275.2,212.7c-0.5-1.4-0.4-3.4-1.8-3.9C273.3,210.8,274.2,211.8,275.2,212.7z M164.6,212.7
	c0.3-0.7,1.8-1.6,0.9-2.4C165.4,211.2,163.9,212.1,164.6,212.7z M174.2,219.6c0.4-1.6,1.5-4.1,0.6-6
	C174.4,215.2,173.5,217.9,174.2,219.6z M297.9,258.3c-0.5-8.4-5-14.3-7.5-20.1c-3.4-8.1-5.1-16.4-10.2-23.4
	C286.3,229.1,290.1,245.7,297.9,258.3z M274.3,222.9c-1-2.5-1.7-5.3-3.3-7.2C271.4,218.7,272.5,221.1,274.3,222.9z M306.6,238.2
	c-1.8-10.7-7.5-17.5-15.3-22.2C291.8,228,301.9,230.4,306.6,238.2z M154.4,221.4c1.2-1,3.9-2.1,3-4.2
	C156.7,218.8,154.4,220.2,154.4,221.4z M168.2,228c0.1-2.1,1.6-4.4,0.9-6.3C168.1,222.9,167.3,225.9,168.2,228z M140,241.2
	c-2.3,4.4-6,9.9-6.6,14.1c-1,6.9,0.1,13.7,1.2,20.4c0.8-19.2,7.4-30.5,15.6-41.7c2.7-3.7,5.9-6.9,6.3-11.7c0-0.2,0-0.4-0.3-0.3
	C148.7,226.3,144.3,233.1,140,241.2z M280,228.9c-0.3-2.3-1.2-4-2.4-5.4C278.4,225.3,278.2,228,280,228.9z M179.5,236.4
	c0.5-1.7,2.3-3.7,1.2-6C179.5,231.3,178.7,234.3,179.5,236.4z M168.5,239.1c1.9-1.8,5-4.8,3.3-8.4
	C170.1,233,168.8,235.6,168.5,239.1z M266.8,233.4c-0.1-1.1-0.4-2-0.9-2.7C265.8,232,265.9,233.1,266.8,233.4z M301.8,243.9
	c2.1,4.2,5.3,8.9,5.4,12.6c0.1,2.4-1.2,4.8-1.2,7.2c0,4.7,1.3,9,1.8,13.8c2,1.2,3.9,2.5,6.9,2.7c-4.1-18.4-5.1-41.5-18.9-49.2
	C297.6,234.3,299.5,239.2,301.8,243.9z M164.6,236.4c0.7-0.8,0.9-3.7,0.3-4.8C165,233.3,163.9,235.2,164.6,236.4z M183.4,235.8
	c1.4-0.2,2.7-3.1,0.9-3.9C184.1,233.2,183.1,233.9,183.4,235.8z M271,238.2c-0.2-1.6-0.4-3.2-1.2-4.2
	C270.2,235.4,269.9,237.4,271,238.2z M143,254.4c2.5-7.3,6.4-13.4,10.5-19.2c0-0.4,0-0.9-0.3-0.9C149.4,240.4,143.8,246.3,143,254.4
	z M159.2,243.9c1.7-1.4,3.6-5.7,1.8-8.7C160.4,237.9,158.5,240.9,159.2,243.9z M184.9,241.8c0.8-1.7,3.3-4.1,1.2-6
	C185.2,237.4,183,239.8,184.9,241.8z M267.7,251.4c2.2-3.7,1.6-12.8-1.8-14.7C266.2,241.8,266.9,246.6,267.7,251.4z M256.9,243.3
	c0.7-1.5,2-2.6,1.8-5.1c-0.7,0.1-1.2,0-1.5-0.3C256.2,239.2,256,241.7,256.9,243.3z M180.7,240.3c0.2-0.5,1.5-1.5,0.6-2.1
	C181.3,238.8,180.3,240.1,180.7,240.3z M176.6,242.4c0.4-0.6,0.6-3,0-3.6C176.2,239.4,176,241.8,176.6,242.4z M164.6,245.1
	c0.8-0.8,1.3-3,0.3-3.9C164.3,241.8,163.9,244.2,164.6,245.1z M180.7,247.8c1.4-1.5,2.9-4.1,1.2-6.3
	C180.5,243,179,245.5,180.7,247.8z M185.2,250.2c1.7-1.2,3.1-5.6,1.5-8.1C185.3,243.6,184.2,247.2,185.2,250.2z M288.9,251.7
	c-0.4-3.8-1.7-6.7-3.9-8.7C285.2,247,287.6,248.9,288.9,251.7z M144.2,276.9c2.7-10.9,7.6-21.2,9-32.4
	C148.5,253.4,145.2,265.2,144.2,276.9z M266.8,260.1c0.2-6.1-1.3-10.5-2.4-15.3C264,249.9,262.9,258.2,266.8,260.1z M304.5,258.9
	c1.2-5.4-3.2-9.9-5.1-14.1C300.6,250,303,254,304.5,258.9z M252.4,245.1c-1.7,0-2.2,5.6-0.9,6.9C252.9,251,255,245.2,252.4,245.1z
	 M169.1,250.2c0.1-1.7,1.9-3.3,1.2-4.8C169.8,247,167.7,248.7,169.1,250.2z M172.4,254.1c0.6-2.4,2.4-5.4,0.9-8.1
	C172.8,248.3,171.9,251.8,172.4,254.1z M270.7,262.5c1.1,0.5,2,1.2,3.3,1.5c-0.4-6.3-0.7-12.7-2.1-18
	C271.5,251.6,271,256.9,270.7,262.5z M278.2,265.8c0.7,0.6,1.6,1,2.7,1.2c0.2-2.6-0.8-5.4-1.2-8.7c-0.6-5.1,0.5-10.8-3-11.7
	C276.9,253.2,278.2,258.8,278.2,265.8z M160.1,250.2c0.4-0.7,2-1.6,0.9-2.7C161.1,248.6,159.2,249.3,160.1,250.2z M181.9,253.5
	c1.1-0.6,1.2-3.8,0.6-5.1C181.1,249.5,180.6,251.8,181.9,253.5z M177.5,252.6c0.9-0.7,1.3-3,0.3-3.9
	C177.3,249.8,176.3,251.5,177.5,252.6z M246.4,254.1c-0.1-1,0.3-4.1-0.3-3.6C246.2,251.5,245.8,254.6,246.4,254.1z M184.9,256.8
	c0.9,0.1,0.9-0.7,1.8-0.6c-0.2-1.4,0.4-3.6-0.3-4.5C185.2,252.6,184.6,254.3,184.9,256.8z M252.1,254.7c0.8,0.3,0.4,1.8,1.5,1.8
	c0.4-0.9,1.3-3.6,0-4.2C253.3,253.3,252.4,253.7,252.1,254.7z M259,258.6c0.4-1.3,0-4.4-0.9-5.4C258.5,254.9,257.2,258.3,259,258.6z
	 M177.8,256.8c1.3,0.9,2.6-2.2,1.2-3.3C178.4,254.4,177.6,255.1,177.8,256.8z M165.8,258.6c0-1.2,1.9-3.6,0.3-4.5
	C166,255.4,164.6,257.9,165.8,258.6z M290.1,262.2c-0.6-2.9-1.4-5.6-2.7-7.8C287.5,257.8,288.4,260.5,290.1,262.2z M156.5,269.7
	c2.3-3.8,4.7-9,4.5-14.4C158.6,259,156.7,264.8,156.5,269.7z M172.7,263.1c0-2.1,2.9-4.5,1.5-6C174,259.3,172.1,261.2,172.7,263.1z
	 M283.6,267.9c-0.2-3.5-0.3-7-1.2-9.9C282.6,261.4,282.6,265.1,283.6,267.9z M153.2,267.6c0.5-3.2,3-6,2.7-9
	C154.6,260.9,151.5,264.3,153.2,267.6z M137.9,266.4c0.3-2.4,2.5-4.5,1.5-7.2C138.8,261.2,137,263.8,137.9,266.4z M165.2,269.4
	c3-0.5,3.5-6.3,2.4-9C166.4,263,164.8,265.2,165.2,269.4z M285.9,268.8c1.5-2,0-6.1-0.6-8.1C285.3,263.6,286.1,265.7,285.9,268.8z
	 M291.9,271.2c-0.3-2.1-0.8-4-2.1-5.1C290.1,268.2,289.8,270.9,291.9,271.2z M300.6,273c0.4-0.2-0.3-4.3-1.2-5.1
	C299.8,269.6,300.2,271.3,300.6,273z M148.1,279.9c1.7-2.2,4.1-6.8,2.4-10.5C149.4,272.4,146.8,275.4,148.1,279.9z M153.2,278.4
	c2.9-1,5.6-3.6,4.8-7.2C156.8,273.9,154.4,275.6,153.2,278.4z M137.3,279.9c0.3-2.8,1.9-5.8,1.5-8.4
	C138.5,274.2,136.8,277.2,137.3,279.9z M137.9,288.2c0.6-0.7,1.7-0.9,2.7-1.2c-0.2-3.9-0.1-8.1-0.6-11.7
	C139.8,279.8,136,283.6,137.9,288.2z M145.1,284c0.4-0.3,1.1-1.9,0.3-2.4C145.4,282.4,144.4,283.7,145.1,284z"/>
</svg>
