<svg id="Layer_1" data-name="Layer 1" xmlns="http://www.w3.org/2000/svg" viewBox="0 0 246.39 353.36"><defs><style>.cls-1{fill:#d0004d;}.cls-2{fill:#fff;}</style></defs><rect class="cls-1" y="108.34" width="246.39" height="246.39"/><path class="cls-2" d="M204.51,230.3c0,44.53-36.26,82.9-81.49,82.9-17.78,0-34-6-47.52-15.67l-11.61,11.8-16.2-15.67L59,281.7a83.67,83.67,0,0,1-17.78-51.22c0-44.53,36.26-82.89,81.49-82.89a80.84,80.84,0,0,1,48.57,16.54l12.5-13,16.54,16.72-12.49,13A81.71,81.71,0,0,1,204.51,230.3ZM81.84,257.94l67.76-70.75A46.78,46.78,0,0,0,123,178.74c-27.28,0-49.28,24.81-49.28,51.56A52.23,52.23,0,0,0,81.84,257.94ZM172.3,230.3a51.52,51.52,0,0,0-7-25.87L97.85,274.3A46.41,46.41,0,0,0,123,281.87C150.12,281.7,172.3,257.23,172.3,230.3Z"/><rect class="cls-1" width="246.39" height="99.33"/><path class="cls-2" d="M23.13,21.07H34.25l7.37,40.67,7.32-40.66H60.22L48.36,77.47H35Z"/><path class="cls-2" d="M61.19,49.28c0-15.57,12.73-29,28.53-29s28.51,13.43,28.5,29-12.72,29-28.53,29S61.19,64.93,61.19,49.28Zm45.75,0c0-9.37-7.69-18-17.22-18s-17.24,8.64-17.25,18,7.7,18,17.23,18S106.94,58.75,106.94,49.3Z"/><path class="cls-2" d="M157.8,77.52H145.65l-8.33-20.66h-1.75V77.51H124.44l0-56.39h13c12.63,0,19,9.07,19,18.2a17,17,0,0,1-9.14,15.33Zm-20-45.44h-2.22V47.25h2.3c4.69,0,7.23-3.8,7.31-7.7A7.14,7.14,0,0,0,137.81,32.08Z"/><path class="cls-2" d="M163.44,21.14h27.08v11h-16V43h14.77V54H174.54V66.57h16.28v11h-27.4Z"/><path class="cls-2" d="M197.26,76V64.52c2.46,1.19,6.83,2.86,9.93,2.86,3.81,0,6.35-2,6.35-5.39,0-7.87-17.46-12.4-17.46-26.46,0-9.69,8.35-15.17,17.33-15.16,4.76,0,8.73,1.43,9.84,2.31V34c-2.46-1.11-6.75-2.62-9.69-2.62-3.58,0-6.2,1.66-6.2,4.6,0,6.28,17.47,12.64,17.46,26.38,0,10.32-8.19,16-17.16,16A26.2,26.2,0,0,1,197.26,76Z"/></svg>