<svg id="Layer_1" data-name="Layer 1" xmlns="http://www.w3.org/2000/svg" viewBox="0 0 622.17 243.33"><defs><style>.cls-1{fill:#d0004d;}.cls-2{fill:#fff;}</style></defs><rect class="cls-1" x="0.17" y="103.33" width="622" height="140"/><path class="cls-2" d="M32.77,133.23h38.1v15.4H48.47v15.3h20.8v15.4H48.47v17.8h22.9v15.4H32.77Z"/><path class="cls-2" d="M77.47,133.23h11.7l19,46.7v-46.7h15.6v79.3h-12.6l-18-42.2v42.2H77.47Z"/><path class="cls-2" d="M131.07,133.23h15.6v31.7h15.8v-31.7h15.7v79.3h-15.6v-32.2h-15.8v32.2h-15.6v-79.3Z"/><path class="cls-2" d="M185.37,133.23h38.1v15.4H201v15.3h20.8v15.4H201v17.8h22.9v15.4h-38.5v-79.3Z"/><path class="cls-2" d="M230.07,133.23h31.1c17.2,0,37,12.3,37,39.7,0,26.3-19.9,39.7-37.4,39.7h-30.6v-79.4Zm29.4,63.9c11.4,0,22.8-8.8,22.8-24.6,0-15.6-11.2-23.9-22.6-23.9h-14v48.5Z"/><path class="cls-2" d="M301.07,210.33v-16.1c3.5,1.7,9.6,4,14,4,5.4,0,8.9-2.8,8.9-7.6,0-11.1-24.6-17.4-24.6-37.2,0-13.6,11.7-21.3,24.4-21.3,6.7,0,12.3,2,13.9,3.2v15.9c-3.5-1.6-9.5-3.7-13.6-3.7-5,0-8.7,2.3-8.7,6.5,0,8.8,24.6,17.8,24.6,37.1,0,14.5-11.5,22.6-24.1,22.6A40.36,40.36,0,0,1,301.07,210.33Z"/><path class="cls-2" d="M380.47,197.13v15.4h-35.3v-79.3h15.6v63.9Z"/><path class="cls-2" d="M385.47,133.23h15.6v79.3h-15.6Z"/><path class="cls-2" d="M407.47,210.33v-16.1c3.5,1.7,9.6,4,14,4,5.4,0,8.9-2.8,8.9-7.6,0-11.1-24.6-17.4-24.6-37.2,0-13.6,11.7-21.3,24.4-21.3,6.7,0,12.3,2,13.9,3.2v15.9c-3.5-1.6-9.5-3.7-13.6-3.7-5,0-8.7,2.3-8.7,6.5,0,8.8,24.6,17.8,24.6,37.1,0,14.5-11.5,22.6-24.1,22.6A39.35,39.35,0,0,1,407.47,210.33Z"/><path class="cls-2" d="M494.07,148.63h-14.9v63.9h-15.6v-63.9h-14.9v-15.4h45.4Z"/><path class="cls-2" d="M498.47,133.23h38.1v15.4h-22.4v15.3H535v15.4h-20.8v17.8h22.9v15.4h-38.5v-79.3Z"/><path class="cls-2" d="M543.17,133.23h11.7l19,46.7v-46.7h15.6v79.3h-12.6l-18.1-42.2v42.2h-15.6Z"/><rect class="cls-1" x="0.17" width="231.49" height="93.32"/><path class="cls-2" d="M21.9,19.79H32.35L39.27,58,46.15,19.8h10.6l-11.15,53H33.07Z"/><path class="cls-2" d="M57.66,46.3c0-14.63,12-27.23,26.8-27.22s26.79,12.62,26.78,27.25S99.29,73.56,84.44,73.55,57.66,61,57.66,46.3Zm43,0c0-8.8-7.23-16.94-16.18-16.95s-16.2,8.13-16.2,16.94,7.23,16.94,16.18,16.94S100.64,55.2,100.64,46.32Z"/><path class="cls-2" d="M148.43,72.84H137l-7.82-19.4h-1.65V72.83H117.09l0-53h12.24c11.87,0,17.83,8.51,17.83,17.09a16,16,0,0,1-8.59,14.4Zm-18.79-42.7h-2.08V44.4h2.16c4.41,0,6.79-3.58,6.87-7.24A6.72,6.72,0,0,0,129.64,30.14Z"/><path class="cls-2" d="M153.72,19.86h25.45v10.3h-15V40.38H178v10.3H164.16V62.55h15.3v10.3H153.7Z"/><path class="cls-2" d="M185.5,71.36V60.62c2.31,1.12,6.41,2.69,9.32,2.69,3.59,0,6-1.86,6-5.07,0-7.39-16.41-11.65-16.41-24.86,0-9.1,7.84-14.25,16.28-14.24,4.47,0,8.2,1.34,9.25,2.16V31.9c-2.31-1-6.34-2.47-9.1-2.47-3.36,0-5.82,1.57-5.82,4.33,0,5.89,16.41,11.87,16.4,24.78,0,9.7-7.69,15.07-16.12,15.07A24.68,24.68,0,0,1,185.5,71.36Z"/></svg>