<svg version="1.1" xmlns="http://www.w3.org/2000/svg" xmlns:xlink="http://www.w3.org/1999/xlink" x="0px" y="0px" viewBox="175 000 675 1000" style="enable-background:new 0 0 1000 1000;" xml:space="preserve">
      <style type="text/css">
         

         #Wave_x5F_01 {
            animation: wawe01 7s -2s infinite alternate linear;
         }

         #Wave_x5F_02 {
            animation: wawe01 3.33s -1s infinite alternate-reverse linear;
         }
         #Wave_x5F_03 {
            animation: wawe01 4.44s infinite alternate linear;*/
         }
         #Wave_x5F_04 {
            animation: wawe01 5.55s infinite alternate-reverse linear;*/
         }

         @keyframes wawe01 {
            from {
               transform:  translateX(-20%);
            }

            to {
               transform:  translateX(20%);
            }
         }

	.st0, .st1, .st2, .st3 {fill:url(#SVGID_1_);}
	
</style>
<linearGradient id="SVGID_1_" gradientUnits="userSpaceOnUse" x1="500" y1="0.7145" x2="500" y2="1000">
		<stop  offset="0" style="stop-color:#57BFD9;stop-opacity:0.3"/>
		<stop  offset="1" style="stop-color:#1B5466"/>
	</linearGradient>
<g id="Wave_x5F_01">
	
	<path class="st0" d="M1000,14.1c-18.6-17.9-48-17.9-66.7,0l0,0c-18.6,17.9-48,17.9-66.7,0l0,0c-18.6-17.9-48-17.9-66.7,0l0,0
		c-18.6,17.9-48,17.9-66.7,0l0,0c-18.6-17.9-48-17.9-66.7,0l0,0C648,32,618.6,32,600,14.1l0,0c-18.6-17.9-48-17.9-66.7,0l0,0
		c-18.6,17.9-48,17.9-66.7,0l0,0c-18.6-17.9-48-17.9-66.7,0l0,0c-18.6,17.9-48,17.9-66.7,0l0,0c-18.6-17.9-48-17.9-66.7,0l0,0
		C248,32,218.6,32,200,14.1l0,0c-18.6-17.9-48-17.9-66.7,0l0,0c-18.6,17.9-48,17.9-66.7,0l0,0C48-3.8,18.6-3.8,0,14.1V1000h1000
		V14.1z"/>
</g>
<g id="Wave_x5F_02">
	
	<path class="st1" d="M1000,9.8c-18.6-10.7-48-10.7-66.7,0l0,0c-18.6,10.7-48,10.7-66.7,0l0,0c-18.6-10.7-48-10.7-66.7,0l0,0
		c-18.6,10.7-48,10.7-66.7,0l0,0c-18.6-10.7-48-10.7-66.7,0l0,0c-18.6,10.7-48,10.7-66.7,0l0,0c-18.6-10.7-48-10.7-66.7,0l0,0
		c-18.6,10.7-48,10.7-66.7,0l0,0c-18.6-10.7-48-10.7-66.7,0l0,0c-18.6,10.7-48,10.7-66.7,0l0,0c-18.6-10.7-48-10.7-66.7,0l0,0
		c-18.6,10.7-48,10.7-66.7,0l0,0c-18.6-10.7-48-10.7-66.7,0l0,0c-18.6,10.7-48,10.7-66.7,0l0,0C48-0.8,18.6-0.8,0,9.8v990h1000V9.8z
		"/>
</g>
<g id="Wave_x5F_03">
	
	<path class="st2" d="M1000,16.8c-23.3-22.4-60.1-22.4-83.3,0l0,0c-23.3,22.4-60.1,22.4-83.3,0l0,0c-23.3-22.4-60.1-22.4-83.3,0l0,0
		c-23.3,22.4-60.1,22.4-83.3,0l0,0c-23.3-22.4-60.1-22.4-83.3,0l0,0c-23.3,22.4-60.1,22.4-83.3,0l0,0c-23.3-22.4-60.1-22.4-83.3,0
		l0,0c-23.3,22.4-60.1,22.4-83.3,0l0,0c-23.3-22.4-60.1-22.4-83.3,0l0,0c-23.3,22.4-60.1,22.4-83.3,0l0,0
		c-23.3-22.4-60.1-22.4-83.3,0l0,0C60.1,39.1,23.3,39.1,0,16.8l0,0v983.4h1000V16.8z"/>
</g>
<g id="Wave_x5F_04">
	
	<path class="st3" d="M0,19.9c23.3-15.5,60.1-15.5,83.3,0l0,0c23.3,15.5,60.1,15.5,83.3,0l0,0c23.3-15.5,60.1-15.5,83.3,0l0,0
		c23.3,15.5,60.1,15.5,83.3,0l0,0c23.3-15.5,60.1-15.5,83.3,0l0,0c23.3,15.5,60.1,15.5,83.3,0l0,0c23.3-15.5,60.1-15.5,83.3,0l0,0
		c23.3,15.5,60.1,15.5,83.3,0l0,0c23.3-15.5,60.1-15.5,83.3,0l0,0c23.3,15.5,60.1,15.5,83.3,0l0,0c23.3-15.5,60.1-15.5,83.3,0l0,0
		c23.3,15.5,60.1,15.5,83.3,0l0,0v980H0V19.9z"/>
</g>
   </svg>